<svg width="231" height="56" viewBox="0 0 231 56" fill="none" xmlns="http://www.w3.org/2000/svg">
<path d="M25.854 35.7037C29.4938 34.8087 32.2484 31.5465 32.2484 27.6328C32.2484 23.9762 28.9225 19.4002 24.0282 19.4002L12 19.4023V51.9902C12 51.9902 22.196 51.9913 24.9879 51.9913C29.6673 51.9913 33.2422 48.0297 33.2422 43.8608C33.2422 39.6919 29.912 36.0098 25.855 35.7048H25.854V35.7037ZM13.0097 19.8265H23.7877C28.1766 19.8265 31.0579 24.0038 31.0579 27.6391C31.0579 31.554 27.5287 35.4858 24.4964 35.4858H13.0086V19.8275L13.0097 19.8265ZM25.0209 51.5661H13.0097V35.911H25.0294C29.3385 36.3107 32.0516 40.0033 32.0516 43.8671C32.0516 47.3823 29.6396 51.5544 25.0209 51.5661ZM152.573 51.9891H153.035L159.39 36.7475H173.118L179.45 51.9902H180.548L166.587 18.3872L152.574 51.9891H152.573ZM159.565 36.3223L166.266 20.2538L172.941 36.3223H159.565ZM218.52 19.4034V50.7614L193.049 18.3915L193.045 51.9881L193.524 51.9987V20.6301L218.996 52.9968L218.998 53L219 19.4023H218.52V19.4034ZM50.1413 51.9891H51.152V19.4013H50.1413V51.9891ZM91.0233 27.6381C91.0233 23.7232 87.9633 19.4023 82.3243 19.4023H71.3899V51.9891H72.4006V35.8993H81.687L90.5328 51.9913H91.6862L82.8456 35.9099C87.6803 35.7654 91.0233 31.5784 91.0233 27.6391V27.6381ZM72.4006 35.4741V19.8265H82.7786C87.077 19.8265 89.8338 24.0007 89.8338 27.6413C89.8338 31.2818 86.7664 35.4731 82.6435 35.4731H72.4006V35.4741ZM109.263 19.4087L108.785 18.3925H108.784V51.9891H109.263V21.8089L123.711 52.9851L124.25 51.7457L137.291 21.8078V51.9998H138.302V18.401L124.018 51.2238L109.262 19.4077H109.263V19.4087ZM112.659 7.49202H116.246L117.099 9.25651H117.475L114.45 3L111.434 9.25332H111.809L112.659 7.49202ZM114.45 3.7802L116.082 7.154H112.822L114.45 3.7802ZM122.927 3.85142L128.218 9.46804V3.21046H127.88V8.61662L122.589 3.00425V9.25545H122.927V3.85142ZM86.5504 8.91956H82.5233V3.2094H82.186V9.25651H86.5504V8.91956ZM159.794 8.91849H155.281V6.31427H158.07V5.97732H155.281V3.54742H159.794V3.21046H154.944V9.25651H159.794V8.91849ZM72.4294 7.49202H76.016L76.8693 9.25651H77.2449L74.2211 3L71.2047 9.25332H71.5803L72.4304 7.49202H72.4294ZM74.22 3.7802L75.8521 7.154H72.5921L74.22 3.7802ZM136.565 3.21153H134.059V9.26183H136.565C138.476 9.26183 139.636 8.00755 139.636 6.23136C139.636 4.45517 138.476 3.21153 136.565 3.21153ZM136.586 8.92912H134.396V3.54848H136.586C138.324 3.54848 139.286 4.6752 139.295 6.23136C139.286 7.78752 138.324 8.92912 136.586 8.92912ZM149.75 4.88354C149.75 3.72174 148.769 3.21259 147.557 3.21259H144.733V9.25651H145.07V6.57044H147.429L149.243 9.25545H149.648L147.825 6.56725C149.025 6.49285 149.75 5.85508 149.75 4.88354ZM147.751 6.23349H145.071V3.55061H147.62C148.61 3.55061 149.41 4.00767 149.41 4.88142C149.41 5.75516 148.698 6.23349 147.751 6.23349ZM91.3734 9.25545H96.2251V8.91743H91.7117V6.31321H94.4993V5.97625H91.7117V3.54636H96.2251V3.2094H91.3734V9.25545ZM106.385 3.21046H105.94L103.601 5.89228L101.259 3.20727H100.812L103.376 6.14845L100.666 9.25651H101.113L103.599 6.40462L106.086 9.25651L106.534 9.25438L103.823 6.14845L106.384 3.21046H106.385Z" fill="white"/>
</svg>
