<svg width="165" height="32" viewBox="0 0 165 32" fill="none" xmlns="http://www.w3.org/2000/svg">
<g clip-path="url(#clip0_9672_3530)">
<path d="M30.293 0.875062C32.4598 0.873092 34.6266 0.871122 36.8591 0.869092C37.5406 0.868223 38.222 0.867353 38.9241 0.866457C39.7632 0.866026 39.7632 0.866026 40.1574 0.865945C40.4297 0.865857 40.7021 0.865509 40.9744 0.864978C47.0495 0.85351 47.0495 0.85351 49.1052 2.06909C49.1348 2.08647 49.1643 2.10385 49.1947 2.12175C50.1463 2.68719 51.0318 3.45069 51.6833 4.45715C51.7273 4.52161 51.7273 4.52161 51.7721 4.58738C52.734 6.03495 53.102 7.86547 53.1033 9.67805C53.1034 9.7283 53.1034 9.7283 53.1034 9.77956C53.1006 12.0001 52.4675 13.9345 51.1468 15.5057C49.8074 17.0021 47.9781 17.6304 46.2048 17.9736C46.4965 18.4467 46.7906 18.9172 47.0911 19.3825C47.3187 19.7351 47.5426 20.0905 47.7639 20.4488C47.9428 20.7379 48.1257 21.0232 48.3096 21.3079C48.5008 21.6038 48.6885 21.9015 48.8693 22.2064C49.0465 22.5034 49.2343 22.7909 49.4209 23.0797C49.6237 23.3941 49.8225 23.7115 50.0197 24.0308C50.1987 24.3199 50.3815 24.6053 50.5655 24.89C50.7567 25.1859 50.9443 25.4836 51.1251 25.7885C51.3024 26.0855 51.4901 26.373 51.6767 26.6618C51.8796 26.9761 52.0784 27.2936 52.2756 27.6129C52.4545 27.902 52.6374 28.1874 52.8214 28.4721C52.9962 28.7428 53.1696 29.014 53.335 29.293C53.5335 29.6273 53.7433 29.951 53.9546 30.2741C53.9809 30.3147 54.0073 30.3553 54.0344 30.3971C54.0695 30.4507 54.0695 30.4507 54.1053 30.5054C54.1695 30.6115 54.2283 30.7183 54.2863 30.8291C54.3044 30.8635 54.3224 30.8978 54.3409 30.9332C54.3546 30.9593 54.3682 30.9855 54.3823 31.0124C53.7783 31.0348 53.1743 31.0516 52.5701 31.0619C52.2894 31.0668 52.009 31.0734 51.7284 31.0844C51.4573 31.0951 51.1864 31.1005 50.9151 31.103C50.812 31.1048 50.7089 31.1082 50.6059 31.1134C49.8227 31.1512 49.8227 31.1512 49.5686 30.9214C49.3877 30.6993 49.2543 30.4499 49.127 30.182C49.0249 29.9765 48.9022 29.7899 48.7804 29.6004C48.7337 29.5253 48.6871 29.4502 48.6406 29.3749C48.5002 29.1484 48.3596 28.9222 48.219 28.696C48.0784 28.4698 47.9378 28.2435 47.7974 28.017C47.5568 27.629 47.315 27.2421 47.0709 26.8572C46.8033 26.435 46.5384 26.0104 46.2747 25.5847C46.1576 25.3958 46.0402 25.2071 45.9229 25.0183C45.7822 24.7921 45.6416 24.5659 45.5013 24.3394C45.2607 23.9514 45.0189 23.5645 44.7748 23.1795C44.4835 22.7201 44.1957 22.2577 43.9087 21.7945C43.6415 21.3634 43.3743 20.9324 43.103 20.5049C42.805 20.0351 42.5117 19.5611 42.2181 19.0874C42.1396 18.9609 42.0611 18.8344 41.9827 18.7079C41.9461 18.6489 41.9461 18.6489 41.9088 18.5886C41.8864 18.5525 41.864 18.5164 41.8409 18.4792C41.821 18.4472 41.8012 18.4152 41.7808 18.3822C41.7369 18.3099 41.7369 18.3099 41.6931 18.2601C41.5958 18.2549 41.4996 18.2527 41.4023 18.2526C41.3716 18.2523 41.3408 18.2521 41.3092 18.2519C41.2051 18.2511 41.1011 18.2507 40.997 18.2503C40.9216 18.2499 40.8462 18.2494 40.7708 18.2489C40.568 18.2476 40.3653 18.2466 40.1626 18.2456C39.9726 18.2447 39.7827 18.2435 39.5927 18.2423C39.0365 18.239 38.4803 18.2362 37.9241 18.2333C36.682 18.2264 35.4399 18.2195 34.1602 18.2124C34.1602 22.4364 34.1602 26.6604 34.1602 31.0124C32.884 31.0124 31.6078 31.0124 30.293 31.0124C30.293 21.0671 30.293 11.1217 30.293 0.875062ZM34.1602 4.21835C34.1602 7.73309 34.1602 11.2478 34.1602 14.8691C35.5859 14.8711 37.0116 14.873 38.4805 14.8751C39.1516 14.8764 39.1516 14.8764 39.8362 14.8777C40.2431 14.878 40.2431 14.878 40.6501 14.8782C40.829 14.8783 41.0079 14.8786 41.1868 14.8792C42.4948 14.883 42.4948 14.883 43.8017 14.826C43.8305 14.8241 43.8593 14.8221 43.889 14.8202C44.9637 14.7464 45.9981 14.5231 46.9702 13.9616C47.0097 13.9392 47.0492 13.9167 47.09 13.8935C47.9819 13.3534 48.6053 12.4601 48.9572 11.3588C49.3282 9.99636 49.2072 8.46845 48.6723 7.19159C48.5156 6.83255 48.3293 6.52291 48.0981 6.22432C48.0641 6.18011 48.0301 6.13591 47.9951 6.09036C46.7342 4.52377 44.8612 4.27091 43.131 4.22249C42.4369 4.20564 41.7423 4.21249 41.0482 4.21351C40.8291 4.21378 40.6101 4.21379 40.3911 4.21383C39.7542 4.21408 39.1174 4.21474 38.4805 4.21536C36.3419 4.21684 36.3419 4.21684 34.1602 4.21835Z" fill="white"/>
<path d="M150.183 -0.0475313C150.271 -0.0472619 150.359 -0.0471272 150.447 -0.047002C151.315 -0.0452138 152.175 -0.0258715 153.037 0.110943C153.063 0.115109 153.09 0.119274 153.118 0.123566C154.226 0.296881 155.314 0.569853 156.38 0.970645C156.418 0.984782 156.456 0.998919 156.494 1.01349C158.099 1.62335 159.615 2.57436 160.892 3.88408C160.926 3.91831 160.96 3.95254 160.995 3.98781C161.494 4.50336 161.986 5.06878 162.382 5.699C162.401 5.72924 162.421 5.75948 162.44 5.79063C162.772 6.31347 163.075 6.85079 163.349 7.41841C163.367 7.45597 163.385 7.49353 163.404 7.53224C164.175 9.14838 164.606 10.9544 164.85 12.7796C164.856 12.8246 164.862 12.8696 164.868 12.916C164.986 13.8532 165.015 14.7896 165.013 15.736C165.013 15.9215 165.014 16.107 165.015 16.2926C165.023 20.1542 164.034 24.0948 161.778 26.9527C161.728 27.0201 161.679 27.0878 161.629 27.1557C161.403 27.464 161.156 27.7404 160.892 28.0035C160.87 28.0253 160.848 28.0471 160.826 28.0695C160.188 28.7022 159.525 29.2472 158.797 29.7229C158.748 29.7553 158.748 29.7553 158.698 29.7883C156.419 31.2926 153.674 31.9671 151.076 31.9774C151.035 31.9776 151.035 31.9776 150.993 31.9778C150.848 31.9785 150.704 31.9789 150.559 31.9791C150.443 31.9793 150.327 31.98 150.21 31.9811C149.126 31.9911 148.054 31.9164 146.984 31.693C146.954 31.687 146.924 31.6809 146.894 31.6747C144.575 31.1997 142.225 30.1649 140.388 28.3856C140.349 28.3494 140.311 28.3132 140.272 28.2759C140.02 28.0358 139.78 27.784 139.542 27.5259C139.502 27.4839 139.463 27.442 139.422 27.3988C139.163 27.1233 138.923 26.8356 138.696 26.5229C138.658 26.4728 138.621 26.4228 138.583 26.3729C138.269 25.9525 137.992 25.5087 137.729 25.0423C137.709 25.007 137.689 24.9717 137.668 24.9354C135.579 21.2051 135.087 16.4493 135.808 12.1057C136.007 10.9688 136.282 9.86412 136.682 8.80348C136.697 8.76152 136.713 8.71956 136.729 8.67633C137.136 7.59734 137.656 6.60767 138.293 5.699C138.309 5.67517 138.326 5.65133 138.343 5.62678C138.809 4.95316 139.321 4.32136 139.904 3.78855C139.947 3.74794 139.989 3.7072 140.031 3.66635C142.276 1.5078 145.156 0.417142 148.001 0.0631819C148.049 0.057011 148.049 0.057011 148.099 0.0507154C148.793 -0.0352829 149.485 -0.0496925 150.183 -0.0475313ZM141.555 7.36411C141.398 7.56448 141.255 7.77608 141.113 7.99154C141.096 8.01707 141.079 8.04259 141.061 8.0689C139.595 10.2889 139.09 13.1352 139.088 15.902C139.088 15.9474 139.088 15.9928 139.088 16.0395C139.092 19.4055 140.031 22.4924 142.049 24.8806C142.361 25.2421 142.688 25.5599 143.046 25.8542C143.073 25.8765 143.1 25.8988 143.127 25.9218C145.336 27.7418 148.088 28.3732 150.74 28.29C150.776 28.2891 150.811 28.2882 150.848 28.2872C153.972 28.1977 156.963 27.1494 159.16 24.428C159.338 24.2005 159.493 23.9597 159.643 23.705C159.659 23.6792 159.674 23.6533 159.691 23.6267C160.755 21.8763 161.233 19.7594 161.415 17.6393C161.421 17.5716 161.421 17.5716 161.427 17.5026C161.676 14.2183 161.252 10.4932 159.459 7.85721C159.4 7.77414 159.341 7.69154 159.28 7.60945C159.252 7.57042 159.224 7.53138 159.194 7.49117C159.104 7.36953 159.011 7.25034 158.918 7.13184C158.883 7.08714 158.848 7.04244 158.812 6.99639C157.894 5.85293 156.661 5.06243 155.413 4.55273C155.382 4.53977 155.35 4.5268 155.318 4.51344C153.712 3.85893 152.011 3.63354 150.32 3.63632C150.27 3.63636 150.27 3.63636 150.22 3.6364C147.045 3.64386 143.834 4.61334 141.555 7.36411Z" fill="white"/>
<path d="M58.4102 0.875122C65.1101 0.875122 71.81 0.875122 78.7129 0.875122C78.7129 2.05721 78.7129 3.2393 78.7129 4.45721C73.2759 4.45721 67.8388 4.45721 62.2371 4.45721C62.2371 7.51488 62.2371 10.5726 62.2371 13.7229C66.9695 13.7229 71.702 13.7229 76.5779 13.7229C76.5779 14.905 76.5779 16.0871 76.5779 17.305C71.8454 17.305 67.1129 17.305 62.2371 17.305C62.2371 20.6621 62.2371 24.0192 62.2371 27.4781C67.8469 27.4781 73.4567 27.4781 79.2366 27.4781C79.2366 28.6444 79.2366 29.8108 79.2366 31.0124C72.3639 31.0124 65.4911 31.0124 58.4102 31.0124C58.4102 21.0671 58.4102 11.1218 58.4102 0.875122Z" fill="white"/>
<path d="M112.309 0.875122C119.301 0.875122 126.294 0.875122 133.498 0.875122C133.498 4.65647 133.498 4.65647 132.617 5.76467C132.562 5.83321 132.508 5.90174 132.453 5.97027C132.426 6.00436 132.399 6.03846 132.371 6.07358C132.236 6.24319 132.102 6.41289 131.967 6.58258C131.913 6.65025 131.86 6.71791 131.806 6.78557C131.779 6.81906 131.753 6.85255 131.725 6.88706C131.645 6.98855 131.564 7.09005 131.484 7.19154C131.457 7.22507 131.43 7.2586 131.403 7.29315C131.35 7.36043 131.296 7.4277 131.243 7.49497C131.104 7.66992 130.965 7.845 130.826 8.02027C130.798 8.05644 130.769 8.09261 130.74 8.12988C130.685 8.19843 130.631 8.26702 130.577 8.33566C130.455 8.49 130.331 8.64235 130.204 8.79154C130.111 8.90129 130.022 9.0125 129.938 9.13184C129.833 9.27558 129.724 9.41057 129.61 9.54378C129.498 9.67505 129.391 9.80783 129.288 9.94975C129.157 10.1309 129.016 10.2972 128.873 10.4647C128.793 10.5608 128.718 10.6592 128.644 10.7617C128.513 10.9429 128.371 11.1091 128.228 11.2766C128.148 11.3728 128.073 11.4712 127.999 11.5736C127.868 11.7548 127.727 11.921 127.584 12.0886C127.504 12.1847 127.429 12.2831 127.355 12.3856C127.224 12.5668 127.082 12.733 126.939 12.9005C126.859 12.9966 126.784 13.095 126.71 13.1975C126.579 13.3787 126.438 13.5449 126.295 13.7124C126.215 13.8086 126.14 13.907 126.066 14.0095C125.935 14.1906 125.793 14.3569 125.65 14.5244C125.57 14.6205 125.495 14.7189 125.421 14.8214C125.29 15.0026 125.149 15.1688 125.006 15.3363C124.926 15.4325 124.851 15.5309 124.776 15.6333C124.646 15.8145 124.504 15.9807 124.361 16.1483C124.281 16.2444 124.206 16.3428 124.132 16.4453C124.001 16.6265 123.86 16.7927 123.717 16.9602C123.637 17.0563 123.562 17.1547 123.487 17.2572C123.356 17.4384 123.215 17.6046 123.072 17.7721C122.992 17.8683 122.917 17.9667 122.843 18.0692C122.712 18.2503 122.571 18.4166 122.427 18.5841C122.348 18.6802 122.272 18.7786 122.198 18.8811C122.067 19.0623 121.926 19.2285 121.783 19.396C121.703 19.4922 121.628 19.5906 121.554 19.693C121.423 19.8742 121.282 20.0404 121.138 20.208C121.058 20.3041 120.983 20.4025 120.909 20.505C120.778 20.6862 120.637 20.8524 120.494 21.0199C120.414 21.116 120.339 21.2144 120.265 21.3169C120.134 21.4981 119.993 21.6643 119.849 21.8318C119.769 21.928 119.694 22.0264 119.62 22.1289C119.489 22.31 119.348 22.4763 119.205 22.6438C119.125 22.7399 119.05 22.8383 118.976 22.9408C118.845 23.122 118.704 23.2882 118.56 23.4557C118.48 23.5519 118.405 23.6503 118.331 23.7527C118.2 23.9339 118.059 24.1001 117.916 24.2677C117.836 24.3638 117.761 24.4622 117.687 24.5647C117.556 24.7459 117.414 24.9121 117.271 25.0796C117.191 25.1757 117.116 25.2741 117.042 25.3766C116.911 25.5578 116.77 25.724 116.627 25.8915C116.547 25.9877 116.472 26.0861 116.398 26.1886C116.267 26.3693 116.126 26.5351 115.983 26.7022C115.873 26.8344 115.771 26.9726 115.669 27.1137C115.625 27.1737 115.579 27.231 115.531 27.2871C121.593 27.3028 127.655 27.3186 133.901 27.3348C133.901 28.5484 133.901 29.762 133.901 31.0124C126.283 31.0124 118.666 31.0124 110.818 31.0124C110.818 29.7043 110.818 28.3961 110.818 27.0483C111.004 26.8276 111.191 26.6069 111.382 26.3796C111.493 26.2322 111.493 26.2322 111.601 26.083C111.748 25.8848 111.91 25.7042 112.069 25.5199C112.227 25.3348 112.376 25.1447 112.52 24.9453C112.662 24.7559 112.817 24.5815 112.969 24.4044C113.096 24.2558 113.218 24.1055 113.335 23.9453C113.507 23.7092 113.694 23.4933 113.881 23.2751C114.014 23.1204 114.141 22.9643 114.263 22.7975C114.434 22.5618 114.621 22.3465 114.808 22.1289C114.94 21.9741 115.068 21.8181 115.189 21.6512C115.36 21.4156 115.547 21.2003 115.734 20.9826C115.892 20.7975 116.041 20.6074 116.186 20.408C116.328 20.2186 116.483 20.0441 116.635 19.8671C116.762 19.7185 116.884 19.5682 117.001 19.408C117.172 19.1719 117.36 18.956 117.547 18.7378C117.679 18.5831 117.807 18.427 117.928 18.2602C118.1 18.0245 118.287 17.8092 118.474 17.5915C118.606 17.4368 118.734 17.2808 118.855 17.1139C119.026 16.8782 119.213 16.6629 119.4 16.4453C119.532 16.2905 119.66 16.1345 119.781 15.9677C119.953 15.732 120.14 15.5167 120.327 15.299C120.485 15.1139 120.634 14.9238 120.779 14.7244C120.92 14.535 121.075 14.3606 121.227 14.1835C121.354 14.0349 121.476 13.8846 121.593 13.7244C121.765 13.4883 121.952 13.2724 122.14 13.0542C122.272 12.8995 122.399 12.7434 122.521 12.5766C122.692 12.3409 122.879 12.1256 123.066 11.908C123.198 11.7532 123.326 11.5972 123.447 11.4303C123.618 11.1947 123.805 10.9794 123.993 10.7617C124.15 10.5766 124.299 10.3865 124.444 10.1871C124.586 9.99767 124.741 9.82325 124.893 9.6462C125.02 9.49763 125.142 9.34731 125.259 9.18706C125.43 8.95095 125.618 8.73508 125.805 8.51691C125.937 8.36217 126.065 8.20613 126.186 8.0393C126.358 7.80362 126.545 7.58831 126.732 7.37064C126.864 7.2159 126.992 7.05986 127.113 6.89303C127.284 6.65735 127.471 6.44205 127.658 6.22438C127.79 6.06994 127.918 5.91425 128.039 5.7477C128.189 5.54076 128.351 5.3499 128.515 5.1587C128.572 5.09234 128.629 5.02586 128.686 4.95926C128.711 4.93043 128.736 4.9016 128.761 4.87189C128.833 4.78596 128.833 4.78596 128.906 4.64826C120.69 4.62461 120.69 4.62461 112.309 4.6005C112.309 3.37112 112.309 2.14175 112.309 0.875122Z" fill="white"/>
<path d="M84.958 0.875122C91.9504 0.875122 98.9427 0.875122 106.147 0.875122C106.147 4.64826 106.147 4.64826 105.664 5.26915C105.51 5.45124 105.51 5.45124 105.445 5.52736C105.376 5.61048 105.312 5.69719 105.248 5.78557C105.137 5.93892 105.02 6.08218 104.898 6.22438C104.754 6.39356 104.618 6.56709 104.486 6.74994C104.377 6.89622 104.258 7.03165 104.14 7.16915C104.06 7.2653 103.985 7.36369 103.911 7.46617C103.78 7.64735 103.639 7.81358 103.496 7.98109C103.416 8.07724 103.341 8.17563 103.267 8.27811C103.136 8.45929 102.995 8.62552 102.851 8.79303C102.771 8.88918 102.696 8.98757 102.622 9.09005C102.491 9.27123 102.35 9.43746 102.207 9.60497C102.127 9.70112 102.052 9.79951 101.978 9.90199C101.847 10.0832 101.705 10.2494 101.562 10.4169C101.482 10.5131 101.407 10.6115 101.333 10.7139C101.202 10.8951 101.061 11.0613 100.918 11.2289C100.838 11.325 100.763 11.4234 100.689 11.5259C100.586 11.6678 100.479 11.8006 100.366 11.9318C100.255 12.0621 100.148 12.1938 100.047 12.3348C99.9053 12.5303 99.7517 12.709 99.5973 12.8899C99.4894 13.0195 99.3896 13.1549 99.2899 13.2932C99.18 13.4395 99.0614 13.5749 98.9438 13.7124C98.8639 13.8086 98.7888 13.907 98.7147 14.0095C98.5837 14.1906 98.4425 14.3569 98.2993 14.5244C98.2194 14.6205 98.1443 14.7189 98.0702 14.8214C97.9392 15.0026 97.798 15.1688 97.6548 15.3363C97.5748 15.4325 97.4997 15.5309 97.4257 15.6333C97.2947 15.8145 97.1535 15.9807 97.0102 16.1483C96.9303 16.2444 96.8552 16.3428 96.7811 16.4453C96.6501 16.6265 96.5089 16.7927 96.3657 16.9602C96.2858 17.0563 96.2107 17.1547 96.1366 17.2572C96.0056 17.4384 95.8644 17.6046 95.7212 17.7721C95.6412 17.8683 95.5661 17.9667 95.4921 18.0692C95.3895 18.2111 95.282 18.3438 95.1698 18.4751C95.0584 18.6054 94.9518 18.7371 94.8501 18.8781C94.7088 19.0736 94.5552 19.2523 94.4008 19.4331C94.2929 19.5627 94.1931 19.6982 94.0933 19.8365C93.9835 19.9828 93.8649 20.1182 93.7473 20.2557C93.6673 20.3519 93.5923 20.4503 93.5182 20.5527C93.3872 20.7339 93.246 20.9001 93.1028 21.0677C93.0228 21.1638 92.9477 21.2622 92.8737 21.3647C92.7427 21.5459 92.6015 21.7121 92.4582 21.8796C92.3783 21.9757 92.3032 22.0741 92.2291 22.1766C92.0981 22.3578 91.9569 22.524 91.8137 22.6915C91.7338 22.7877 91.6587 22.8861 91.5846 22.9886C91.4536 23.1697 91.3124 23.336 91.1692 23.5035C91.0892 23.5996 91.0141 23.698 90.9401 23.8005C90.8091 23.9817 90.6679 24.1479 90.5246 24.3154C90.4447 24.4116 90.3696 24.51 90.2955 24.6124C90.1929 24.7544 90.0855 24.8871 89.9733 25.0184C89.8619 25.1487 89.7552 25.2804 89.6535 25.4214C89.5122 25.6169 89.3587 25.7956 89.2043 25.9764C89.0964 26.106 88.9966 26.2415 88.8968 26.3798C88.7899 26.5222 88.6749 26.6544 88.5596 26.7871C88.4277 26.9475 88.3051 27.1184 88.1807 27.2871C94.2558 27.3028 100.331 27.3186 106.59 27.3348C106.59 28.5484 106.59 29.762 106.59 31.0124C98.9729 31.0124 91.3558 31.0124 83.5078 31.0124C83.5078 27.0005 83.5078 27.0005 84.3135 26.0453C84.4531 25.8561 84.4531 25.8561 84.5955 25.6632C84.7204 25.5126 84.8466 25.3641 84.9739 25.2164C85.1008 25.0678 85.223 24.9175 85.3394 24.7572C85.5112 24.5211 85.6985 24.3052 85.8861 24.0871C86.0181 23.9323 86.146 23.7763 86.2672 23.6095C86.4384 23.3738 86.6254 23.1585 86.8126 22.9408C86.9447 22.786 87.0725 22.63 87.1937 22.4632C87.3649 22.2275 87.5519 22.0122 87.7391 21.7945C87.8712 21.6398 87.999 21.4837 88.1202 21.3169C88.2915 21.0812 88.4785 20.8659 88.6656 20.6483C88.8236 20.4632 88.9725 20.2731 89.1174 20.0736C89.2591 19.8842 89.4137 19.7098 89.5662 19.5328C89.6931 19.3842 89.8153 19.2339 89.9317 19.0736C90.1034 18.8375 90.2908 18.6216 90.4784 18.4035C90.6104 18.2487 90.7383 18.0927 90.8595 17.9259C91.0307 17.6902 91.2177 17.4749 91.4049 17.2572C91.5369 17.1025 91.6648 16.9464 91.786 16.7796C91.9572 16.5439 92.1442 16.3286 92.3314 16.1109C92.4894 15.9258 92.6383 15.7358 92.7832 15.5363C92.9249 15.3469 93.0795 15.1725 93.232 14.9955C93.3588 14.8469 93.4811 14.6966 93.5975 14.5363C93.7692 14.3002 93.9566 14.0843 94.1442 13.8662C94.2762 13.7114 94.4041 13.5554 94.5253 13.3886C94.6965 13.1529 94.8835 12.9376 95.0707 12.7199C95.2027 12.5652 95.3306 12.4091 95.4518 12.2423C95.623 12.0066 95.81 11.7913 95.9972 11.5736C96.1292 11.4189 96.2571 11.2628 96.3783 11.096C96.5495 10.8603 96.7365 10.645 96.9237 10.4274C97.0816 10.2423 97.2306 10.0522 97.3755 9.85273C97.5171 9.66334 97.6718 9.48892 97.8242 9.31188C97.9511 9.1633 98.0734 9.01298 98.1898 8.85273C98.3615 8.61663 98.5488 8.40075 98.7364 8.18258C98.8685 8.02784 98.9964 7.8718 99.1176 7.70497C99.2888 7.46929 99.4758 7.25399 99.663 7.03632C99.795 6.88157 99.9229 6.72554 100.044 6.5587C100.215 6.32302 100.402 6.10772 100.589 5.89005C100.718 5.73921 100.843 5.58764 100.961 5.42438C101.162 5.15422 101.38 4.90301 101.595 4.64826C96.1048 4.6325 90.6146 4.61673 84.958 4.6005C84.958 3.37112 84.958 2.14175 84.958 0.875122Z" fill="white"/>
<path d="M11.1584 0.875122C12.5277 0.875122 13.8969 0.875122 15.3076 0.875122C15.6245 1.68031 15.6245 1.68031 15.7224 1.96206C15.7388 2.00894 15.7388 2.00894 15.7555 2.05677C15.7788 2.12358 15.8021 2.19042 15.8253 2.25729C15.8903 2.44467 15.9559 2.6318 16.0214 2.81897C16.0353 2.85865 16.0491 2.89834 16.0634 2.93923C16.2294 3.41326 16.3979 3.88599 16.5665 4.3587C16.5989 4.44975 16.6314 4.54079 16.6638 4.63184C16.7459 4.86207 16.828 5.09228 16.9101 5.32249C17.0549 5.72856 17.1997 6.13466 17.3444 6.54079C17.3602 6.58516 17.3761 6.62952 17.3923 6.67523C17.6421 7.3761 17.8901 8.07779 18.1375 8.77981C18.3539 9.39361 18.5722 10.0064 18.7921 10.6184C19.0274 11.2732 19.2606 11.9289 19.492 12.5856C19.7402 13.2896 19.9893 13.9931 20.2398 14.696C20.2636 14.7627 20.2636 14.7627 20.2878 14.8308C20.3681 15.056 20.4484 15.2812 20.5287 15.5064C20.7044 15.9994 20.8799 16.4924 21.0555 16.9854C21.1033 17.1197 21.1511 17.2539 21.1989 17.3882C21.2225 17.4546 21.2225 17.4546 21.2467 17.5225C21.3427 17.7921 21.4388 18.0617 21.5349 18.3313C21.6152 18.5563 21.6954 18.7814 21.7756 19.0065C21.7914 19.0509 21.8072 19.0953 21.8235 19.141C22.0732 19.8419 22.3213 20.5435 22.5687 21.2455C22.785 21.8593 23.0033 22.4721 23.2233 23.0841C23.4586 23.7388 23.6918 24.3946 23.9232 25.0512C24.1713 25.7553 24.4205 26.4588 24.6709 27.1617C24.6866 27.2057 24.7023 27.2496 24.7184 27.2949C24.8835 27.7583 25.0487 28.2217 25.2143 28.6849C25.2841 28.8803 25.3539 29.0758 25.4237 29.2714C25.4568 29.364 25.4899 29.4566 25.523 29.5492C25.5692 29.6782 25.6153 29.8073 25.6613 29.9363C25.6746 29.9733 25.6879 30.0103 25.7016 30.0484C25.8152 30.3674 25.9179 30.6886 26.0229 31.0124C24.6404 31.0124 23.2579 31.0124 21.8335 31.0124C21.3898 29.7498 20.9462 28.4873 20.5046 27.2236C20.3383 26.7479 20.1713 26.2726 20.0041 25.7973C19.8571 25.3795 19.7105 24.9616 19.5644 24.5434C19.5496 24.5009 19.5347 24.4584 19.5194 24.4146C19.4481 24.2104 19.3768 24.0062 19.3056 23.802C19.077 23.1472 18.8438 22.495 18.6108 21.8423C14.9418 21.8423 11.2729 21.8423 7.49268 21.8423C6.95809 23.3304 6.42375 24.8185 5.89386 26.3089C5.79934 26.5747 5.70472 26.8405 5.61007 27.1063C5.59421 27.1508 5.57835 27.1953 5.56201 27.2412C5.48266 27.464 5.40328 27.6868 5.32388 27.9096C5.17372 28.331 5.02375 28.7526 4.87433 29.1744C4.80336 29.3746 4.73231 29.5749 4.66125 29.7751C4.62724 29.871 4.59329 29.9669 4.55938 30.0629C4.5125 30.1955 4.46547 30.328 4.41841 30.4606C4.40451 30.5 4.39062 30.5395 4.3763 30.5801C4.36343 30.6163 4.35055 30.6524 4.33728 30.6897C4.32617 30.7211 4.31506 30.7525 4.30361 30.7848C4.27002 30.8692 4.27002 30.8692 4.18945 31.0124C4.11411 31.0301 4.11411 31.0301 4.02072 31.0297C3.98536 31.0299 3.94999 31.0301 3.91356 31.0303C3.87468 31.0297 3.83579 31.0292 3.79573 31.0287C3.73442 31.0287 3.73442 31.0287 3.67187 31.0288C3.53628 31.0287 3.40072 31.0275 3.26514 31.0264C3.17133 31.0262 3.07752 31.026 2.9837 31.0258C2.73641 31.0253 2.48913 31.0239 2.24185 31.0223C1.98966 31.0208 1.73747 31.0202 1.48529 31.0194C0.990187 31.0179 0.495094 31.0154 0 31.0124C0.0225841 30.8619 0.0510357 30.7286 0.103609 30.5891C0.116619 30.5542 0.129627 30.5194 0.143031 30.4834C0.164376 30.4272 0.164376 30.4272 0.186152 30.3699C0.208576 30.3101 0.208576 30.3101 0.231453 30.249C0.280844 30.1173 0.330512 29.9858 0.380173 29.8542C0.414999 29.7615 0.4498 29.6687 0.484579 29.576C0.538337 29.4326 0.592108 29.2892 0.645951 29.1458C0.806601 28.7181 0.96554 28.2894 1.124 27.8605C1.40195 27.1081 1.68148 26.3566 1.9617 25.6055C2.19488 24.9804 2.42716 24.3548 2.65869 23.7289C2.90546 23.0618 3.15301 22.3951 3.40141 21.7289C3.41726 21.6864 3.4331 21.6439 3.44942 21.6001C3.57787 21.2556 3.70637 20.9111 3.83488 20.5667C3.94722 20.2655 4.05954 19.9644 4.17183 19.6632C4.18768 19.6207 4.20352 19.5782 4.21985 19.5344C4.45222 18.9111 4.68368 18.2873 4.91455 17.6632C5.16132 16.9961 5.40887 16.3294 5.65727 15.6632C5.67312 15.6207 5.68896 15.5782 5.70528 15.5344C5.83373 15.1899 5.96223 14.8455 6.09073 14.501C6.20308 14.1998 6.3154 13.8987 6.42769 13.5975C6.44354 13.555 6.45938 13.5125 6.47571 13.4687C6.70808 12.8454 6.93954 12.2216 7.17041 11.5975C7.41718 10.9304 7.66473 10.2637 7.91313 9.59751C7.92898 9.55501 7.94482 9.51252 7.96114 9.46873C8.08959 9.12425 8.21809 8.77979 8.34659 8.43533C8.45894 8.13418 8.57126 7.83302 8.68355 7.53184C8.6994 7.48934 8.71524 7.44683 8.73157 7.40304C8.97896 6.7394 9.22527 6.07521 9.47106 5.41074C9.73496 4.69739 10.0001 3.9847 10.2658 3.27232C10.5638 2.47349 10.8611 1.67428 11.1584 0.875122ZM13.1726 5.98557C13.1631 6.01215 13.1535 6.03874 13.1437 6.06613C12.1262 8.8984 12.1262 8.8984 12.0682 9.05994C12.03 9.16625 11.9918 9.27256 11.9536 9.37887C11.8583 9.64416 11.763 9.90944 11.6677 10.1747C11.492 10.6638 11.3163 11.1529 11.1407 11.6421C10.4253 13.6349 10.4253 13.6349 10.0738 14.6063C9.95575 14.9325 9.83785 15.2587 9.71996 15.585C9.68305 15.6871 9.64613 15.7893 9.60921 15.8914C9.49113 16.218 9.37315 16.5447 9.2554 16.8715C9.2023 17.0188 9.14915 17.1662 9.09588 17.3134C9.03666 17.4772 8.97763 17.6411 8.91864 17.805C8.89169 17.8793 8.89169 17.8793 8.86421 17.9551C8.84797 18.0004 8.83173 18.0456 8.815 18.0922C8.79359 18.1515 8.79359 18.1515 8.77175 18.2121C8.73675 18.3058 8.73675 18.3058 8.74146 18.4035C11.6128 18.4035 14.4842 18.4035 17.4426 18.4035C17.4128 18.2265 17.3837 18.0955 17.3273 17.9326C17.3117 17.8874 17.2962 17.8422 17.2801 17.7956C17.2631 17.7468 17.2461 17.698 17.2286 17.6477C17.2109 17.5962 17.1931 17.5448 17.1748 17.4918C17.1165 17.323 17.058 17.1543 16.9995 16.9856C16.959 16.8682 16.9184 16.7509 16.8779 16.6335C16.8575 16.5743 16.8371 16.5151 16.8166 16.4559C16.8065 16.4265 16.7964 16.3971 16.7859 16.3669C16.755 16.2775 16.7242 16.1881 16.6933 16.0987C16.513 15.577 16.3342 15.0546 16.1561 14.5318C16.128 14.4496 16.1 14.3674 16.0719 14.2851C16.0176 14.1258 15.9633 13.9666 15.909 13.8073C15.7867 13.4487 15.6643 13.0903 15.5418 12.7318C15.5298 12.6969 15.5179 12.6619 15.5056 12.6259C15.2881 11.9898 15.0696 11.3542 14.8511 10.7187C14.5407 9.81606 14.231 8.91315 13.9229 8.00945C13.9075 7.96425 13.8921 7.91905 13.8762 7.87248C13.8463 7.7848 13.8164 7.69712 13.7865 7.60943C13.758 7.52578 13.7295 7.44215 13.7009 7.35853C13.6279 7.14435 13.5559 6.92977 13.4851 6.71453C13.4704 6.67019 13.4557 6.62584 13.4406 6.58014C13.4125 6.49526 13.3847 6.41028 13.3571 6.32517C13.3447 6.28752 13.3322 6.24986 13.3193 6.21106C13.3085 6.17779 13.2976 6.14452 13.2864 6.11024C13.2572 6.02393 13.2572 6.02393 13.1726 5.98557Z" fill="white"/>
</g>
<defs>
<clipPath id="clip0_9672_3530">
<rect width="165" height="32" fill="white"/>
</clipPath>
</defs>
</svg>
