<svg width="244" height="76" viewBox="0 0 244 76" fill="none" xmlns="http://www.w3.org/2000/svg">
<g clip-path="url(#clip0_9672_3442)">
<path d="M26.9153 0C52.2638 0 77.6122 0 103.729 0C110.513 15.2503 112.822 33.2307 106.712 49.1765C105.877 51.2447 104.973 53.2662 104.009 55.277C103.798 55.7187 103.588 56.1605 103.372 56.6156C102.674 57.9634 102.674 57.9634 101.839 59.3037C100.671 61.1664 100.671 61.1664 99.5424 63.4898C97.5905 66.9469 95.5023 70.0855 91.5667 71.3276C86.3324 72.1737 81.0362 71.8943 75.7569 71.7302C74.0454 71.7122 72.3339 71.6984 70.6224 71.6887C66.1362 71.6519 61.6532 71.5569 57.1682 71.4494C52.5844 71.35 48 71.306 43.4153 71.2573C34.4337 71.1537 25.4544 70.9885 16.4746 70.7843C17.5369 68.0346 18.7464 65.7387 20.3899 63.2868C30.8328 47.0398 33.6042 29.913 29.5992 11.1033C28.7718 7.38342 27.8408 3.69862 26.9153 0Z" fill="#4069A2"/>
<path d="M166.873 0.504958C168.148 0.50856 168.148 0.50856 169.449 0.512234C170.281 0.500228 171.114 0.488223 171.971 0.475853C177.835 0.472398 182.435 0.859764 187.114 4.70341C191.475 10.0563 191.608 14.9373 190.982 21.6078C189.768 27.6406 187.413 33.0867 182.779 37.2549C175.61 41.7575 169.667 42.6052 161.385 42.6103C160.596 42.6194 159.807 42.6285 158.995 42.6379C158.243 42.6394 157.49 42.6408 156.715 42.6423C156.028 42.6453 155.341 42.6484 154.633 42.6516C152.949 42.4706 152.949 42.4706 151.457 40.9804C151.533 39.2448 151.533 39.2448 151.923 36.9842C152.073 36.1124 152.223 35.2407 152.378 34.3425C152.566 33.326 152.756 32.3099 152.949 31.2941C153.055 30.7322 153.161 30.1704 153.27 29.5915C153.995 25.7986 154.753 22.013 155.528 18.23C155.936 16.2287 156.336 14.2258 156.736 12.2228C156.995 10.9474 157.256 9.67207 157.516 8.39688C157.634 7.79934 157.753 7.20179 157.874 6.58613C159.168 0.370299 161.026 0.543117 166.873 0.504958ZM167.118 8.19606C166.373 11.7762 165.629 15.3568 164.888 18.9378C164.635 20.1564 164.382 21.375 164.128 22.5934C163.764 24.3427 163.402 26.0924 163.04 27.8422C162.925 28.3886 162.811 28.9351 162.694 29.4981C162.105 32.2361 162.105 32.2361 161.898 35.0196C167.073 35.401 171.025 35.1248 175.321 32.0392C179.703 27.7589 181.381 23.4032 181.567 17.3701C181.472 14.2391 181.225 12.0916 179.05 9.68625C176.502 8.03688 174.4 8.0379 171.406 8.10292C170.201 8.12309 170.201 8.12309 168.971 8.14367C168.054 8.1696 168.054 8.1696 167.118 8.19606Z" fill="#245699"/>
<path d="M108.949 33.5294C109.195 33.5294 109.441 33.5294 109.695 33.5294C109.463 43.6785 105.932 53.5795 100.173 61.9327C99.1845 63.3662 99.1845 63.3662 98.3889 65.1932C96.9287 67.7322 95.7154 69.106 93.2882 70.7843C87.6892 72.2112 81.6254 71.6481 75.9026 71.512C74.1889 71.498 72.4753 71.4874 70.7616 71.48C66.2638 71.4516 61.7678 71.3785 57.2707 71.2959C52.6767 71.2195 48.0825 71.1856 43.4881 71.1481C34.4828 71.0684 25.4789 70.9413 16.4746 70.7843C16.9668 69.5549 17.459 68.3255 17.9661 67.0588C18.9497 67.0367 18.9497 67.0367 19.9531 67.0141C26.9855 66.8483 34.0151 66.6338 41.0445 66.3701C42.4246 66.3193 43.8048 66.2735 45.185 66.2282C56.061 65.8241 64.8586 63.62 74.6441 58.8628C75.2637 58.5661 75.8833 58.2694 76.5216 57.9638C84.1909 54.2464 91.2057 50.1851 97.7627 44.7059C98.6914 43.9337 98.6914 43.9337 99.6388 43.1458C103.09 40.1768 106.037 37.0213 108.949 33.5294Z" fill="#08985C"/>
<path d="M148.92 0.681058C150.572 1.49019 150.572 1.49019 152.949 2.98038C153.136 8.66176 153.136 8.66176 151.458 11.1765C150.981 10.9613 150.504 10.7462 150.013 10.5245C144.201 8.37951 144.201 8.37951 138.174 8.98774C133.054 12.0967 131.283 16.7235 129.83 22.3529C129.253 26.3981 129.118 29.3785 131.275 32.924C134.378 34.7587 136.749 34.8529 140.271 34.2745C142.102 33.6555 143.742 32.878 145.491 32.0392C146.23 32.0392 146.968 32.0392 147.729 32.0392C147.664 33.1111 147.583 34.1821 147.496 35.2524C147.431 36.1471 147.431 36.1471 147.365 37.0599C146.907 39.0814 146.38 39.7303 144.746 40.9804C139.22 43.6745 133.656 44.0105 127.78 42.3774C123.886 40.945 122.086 38.6688 120.074 35.0633C117.666 29.6672 118.619 23.398 120.136 17.8823C123.32 9.97567 126.95 4.523 134.806 0.849869C139.472 -0.747762 144.233 -0.96666 148.92 0.681058Z" fill="#245699"/>
<path d="M209.628 0.745128C209.129 7.7444 207.677 14.4789 206.225 21.3285C205.977 22.5149 205.729 23.7014 205.481 24.8881C204.879 27.7694 204.272 30.6497 203.662 33.5294C204.506 33.5746 205.35 33.6197 206.219 33.6662C207.325 33.7291 208.43 33.7922 209.535 33.8554C210.091 33.8847 210.648 33.914 211.221 33.9442C215.425 34.1901 215.425 34.1901 217.085 35.0196C216.526 40.7941 216.526 40.7941 214.848 42.4706C212.762 42.6398 212.762 42.6398 210.135 42.6161C208.729 42.6089 208.729 42.6089 207.294 42.6016C205.819 42.5829 205.819 42.5829 204.314 42.5638C203.315 42.5563 202.316 42.5495 201.317 42.5434C198.867 42.5258 196.417 42.5012 193.967 42.4706C192.431 39.9867 192.397 38.5884 192.979 35.7556C193.126 35.0148 193.273 34.274 193.424 33.5107C193.593 32.7158 193.761 31.921 193.935 31.1021C194.101 30.2829 194.267 29.4637 194.437 28.6197C194.97 26.001 195.517 23.3855 196.064 20.7696C196.425 19.0012 196.785 17.2325 197.144 15.4637C198.466 8.99833 198.466 8.99833 199.14 5.77709C199.275 5.12756 199.411 4.47802 199.55 3.80881C199.933 2.23532 199.933 2.23532 200.679 0.745128C203.577 -0.529089 206.608 0.292516 209.628 0.745128Z" fill="#245798"/>
<path d="M108.95 33.5294C109.196 33.5294 109.442 33.5294 109.695 33.5294C109.53 40.7387 107.713 47.9209 104.475 54.3922C102.742 55.1848 101.031 55.8996 99.2546 56.5809C98.7807 56.7687 98.3067 56.9564 97.8184 57.1499C96.3146 57.7386 94.8038 58.3041 93.2885 58.8628C92.7892 59.0509 92.2899 59.2391 91.7755 59.433C86.7683 61.2222 81.6384 62.1577 76.4156 63.1005C75.5293 63.2681 74.6429 63.4357 73.7297 63.6084C69.5069 64.383 65.5166 65.0564 61.2207 64.8235C63.2745 63.4556 65.2319 62.5852 67.5184 61.6893C83.5616 55.3968 97.7943 46.9038 108.95 33.5294Z" fill="#F6BD3E"/>
<path d="M213.075 57.326C213.962 57.3327 214.848 57.3394 215.761 57.3464C216.444 57.355 217.126 57.3637 217.83 57.3726C216.734 70.509 216.734 70.509 213.836 74.3643C211.672 75.9355 209.255 75.9318 206.643 76C204.779 75.674 204.779 75.674 203.66 75.2549C203.906 74.0255 204.152 72.7961 204.406 71.5294C206.375 71.5294 208.344 71.5294 210.372 71.5294C208.189 71.5294 206.431 70.8142 204.406 70.0392C203.11 67.4493 203.855 64.6129 204.406 61.8432C206.577 57.3172 208.237 57.2786 213.075 57.326ZM209.626 61.0981C208.021 63.5032 207.985 64.2901 208.135 67.0588C208.873 67.4277 208.873 67.4277 209.626 67.8039C212.078 65.7728 212.078 65.7728 212.796 62.7745C212.734 62.2213 212.673 61.6681 212.609 61.0981C211.625 61.0981 210.64 61.0981 209.626 61.0981Z" fill="#05A65E"/>
<path d="M146.983 57.3726C148.567 57.3324 150.152 57.3035 151.737 57.2794C152.619 57.2622 153.502 57.2449 154.411 57.2271C156.678 57.3726 156.678 57.3726 158.169 58.8628C158.759 62.29 158.442 64.9922 156.957 68.1299C154.932 70.3127 153.619 70.9733 150.712 71.5294C149.973 71.2836 149.235 71.0377 148.474 70.7843C148.228 72.2596 147.982 73.7349 147.728 75.2549C144.932 76.0932 144.932 76.0932 143.254 75.2549C143.732 72.5533 144.215 69.8526 144.699 67.152C144.835 66.3826 144.971 65.6133 145.111 64.8206C145.243 64.0859 145.375 63.3511 145.512 62.5941C145.693 61.5757 145.693 61.5757 145.878 60.5367C146.237 58.8628 146.237 58.8628 146.983 57.3726ZM151.457 61.0981C149.885 63.2502 149.22 64.365 149.22 67.0589C149.958 67.3047 150.697 67.5506 151.457 67.804C152.669 66.9686 152.669 66.9686 153.695 65.5687C153.881 63.2399 153.881 63.2399 153.695 61.0981C152.956 61.0981 152.218 61.0981 151.457 61.0981Z" fill="#05A65E"/>
<path d="M181.408 57.2998C182.848 57.3128 182.848 57.3128 184.318 57.326C185.28 57.3327 186.243 57.3394 187.234 57.3464C187.979 57.355 188.724 57.3637 189.492 57.3726C189.137 59.329 188.779 61.2847 188.42 63.2402C188.319 63.7963 188.219 64.3524 188.115 64.9254C187.339 69.1253 187.339 69.1253 186.509 70.7843C184.746 71.1714 184.746 71.1714 182.547 71.3897C181.827 71.4714 181.107 71.553 180.365 71.6371C177.907 71.5086 177.001 71.0769 175.322 69.2941C174.618 66.5771 174.791 63.7381 175.972 61.1825C178.481 57.3902 178.481 57.3902 181.408 57.2998ZM180.543 61.0981C179.44 63.301 179.752 65.3766 179.797 67.8039C181.656 67.0609 182.612 66.574 183.712 64.8701C184.399 63.2558 184.399 63.2558 184.271 61.0981C183.041 61.0981 181.81 61.0981 180.543 61.0981Z" fill="#05A75D"/>
<path d="M136.571 57.2271C137.895 57.253 137.895 57.253 139.246 57.2794C140.575 57.2996 140.575 57.2996 141.932 57.3202C142.614 57.3375 143.297 57.3548 144 57.3726C143.68 62.0302 143.244 66.3451 141.763 70.7843C140.46 70.9706 139.154 71.1377 137.847 71.2966C137.121 71.3917 136.394 71.4868 135.645 71.5847C133.559 71.5294 133.559 71.5294 131.82 70.6301C130.289 68.9857 130.193 68.2522 130.25 66.0343C130.432 61.8797 131.949 57.5239 136.571 57.2271ZM135.797 61.0981C135.304 63.0651 134.812 65.0322 134.305 67.0589C135.043 67.4277 135.043 67.4277 135.797 67.804C137.884 65.9204 139.121 64.6715 139.525 61.8432C138.295 61.5973 137.064 61.3514 135.797 61.0981Z" fill="#05A65D"/>
<path d="M227.339 57.1863C228.212 57.2132 229.084 57.24 229.984 57.2678C230.649 57.3023 231.314 57.3369 232 57.3725C231.639 61.9962 231.005 66.3133 229.762 70.7843C228.459 70.9706 227.154 71.1376 225.847 71.2966C225.12 71.3916 224.394 71.4867 223.645 71.5847C221.172 71.5191 220.322 71.0023 218.576 69.2941C217.313 66.0491 218.108 63.5288 219.322 60.3529C221.715 57.1848 223.462 57.0313 227.339 57.1863ZM223.796 61.098C222.589 63.0145 222.272 63.8375 222.584 66.1274C222.738 66.6807 222.892 67.2339 223.051 67.8039C224.541 67.3722 224.541 67.3722 226.034 66.3137C226.997 64.0471 226.997 64.0471 227.525 61.8431C226.295 61.5972 225.064 61.3514 223.796 61.098Z" fill="#05A65E"/>
<path d="M129.085 52.902C129.577 53.1478 130.069 53.3937 130.576 53.6471C130.33 54.8765 130.084 56.1059 129.83 57.3726C127.861 57.1267 125.893 56.8808 123.864 56.6275C124.721 58.8066 125.34 59.5968 127.313 60.9583C129.085 62.5882 129.085 62.5882 129.551 65.1961C129.085 67.8039 129.085 67.8039 127.5 69.5735C125.149 70.901 123.576 71.4172 120.881 71.5294C118.737 70.8309 118.737 70.8309 117.152 70.0392C117.152 68.8098 117.152 67.5804 117.152 66.3137C119.613 66.5596 122.074 66.8055 124.61 67.0588C124.61 66.0753 124.61 65.0918 124.61 64.0784C124.025 63.8633 123.441 63.6481 122.839 63.4265C120.881 62.5882 120.881 62.5882 119.39 61.098C119.063 58.5833 119.063 58.5833 119.39 55.8824C122.25 52.3992 124.884 52.5579 129.085 52.902Z" fill="#05A65E"/>
<path d="M191.729 57.3726C193.314 57.3324 194.899 57.3035 196.484 57.2794C197.366 57.2622 198.249 57.2449 199.158 57.2271C201.424 57.3726 201.424 57.3726 202.916 58.8628C202.925 60.6702 202.925 60.6702 202.683 62.8211C202.609 63.5251 202.535 64.2292 202.459 64.9545C202.189 66.92 201.838 68.8446 201.424 70.7843C199.948 70.7843 198.471 70.7843 196.95 70.7843C197.056 69.7285 197.165 68.673 197.276 67.6177C197.337 67.0299 197.397 66.4421 197.46 65.8364C197.678 64.2099 198.009 62.6797 198.441 61.0981C197.703 61.344 196.965 61.5898 196.204 61.8432C195.269 63.9185 195.269 63.9185 194.573 66.3603C194.316 67.1835 194.059 68.0066 193.795 68.8547C193.606 69.4915 193.416 70.1282 193.221 70.7843C191.99 70.7843 190.76 70.7843 189.492 70.7843C189.853 66.1607 190.486 61.8436 191.729 57.3726Z" fill="#05A55F"/>
<path d="M30.6445 2.23529C54.0242 2.23529 77.4039 2.23529 101.492 2.23529C101.861 3.71058 101.861 3.71058 102.238 5.21568C101.869 4.47804 101.869 4.47804 101.492 3.72549C67.53 4.09431 67.53 4.09431 32.8818 4.47058C32.8818 5.7 32.8818 6.92941 32.8818 8.19607C31.3903 5.96078 31.3903 5.96078 30.6445 2.23529Z" fill="#829ABE"/>
<path d="M167.864 57.3726C170.571 57.3726 173.278 57.3726 176.068 57.3726C175.822 58.602 175.575 59.8314 175.322 61.098C174.635 61.1427 174.635 61.1427 173.935 61.1883C172.115 61.7242 172.115 61.7242 171.395 63.8718C171.032 65.1036 171.032 65.1036 170.661 66.3603C170.411 67.1834 170.161 68.0066 169.903 68.8546C169.723 69.4914 169.542 70.1282 169.356 70.7843C168.125 70.7843 166.895 70.7843 165.627 70.7843C165.947 66.1267 166.383 61.8118 167.864 57.3726Z" fill="#05A55F"/>
<path d="M161.153 57.3726C162.384 57.3726 163.614 57.3726 164.882 57.3726C164.562 62.0302 164.126 66.3451 162.645 70.7843C161.414 70.7843 160.184 70.7843 158.916 70.7843C159.276 66.1607 159.91 61.8436 161.153 57.3726Z" fill="#05A55E"/>
<path d="M30.6445 2.23527C34.4104 2.21665 38.1762 2.20324 41.942 2.19434C43.2192 2.19063 44.4964 2.18557 45.7735 2.17906C52.9504 2.14344 60.0422 2.18693 67.1869 2.98037C67.1869 3.22625 67.1869 3.47213 67.1869 3.72547C55.8662 3.97135 44.5455 4.21723 32.8818 4.47057C32.8818 5.69998 32.8818 6.92939 32.8818 8.19606C31.4312 6.02212 31.0526 4.7497 30.6445 2.23527Z" fill="#ABBCD2"/>
<path d="M103.729 54.3922C102.661 57.3253 101.265 59.8234 99.5805 62.4485C98.8869 63.5391 98.8869 63.5391 98.1793 64.6518C97.7957 65.2002 97.4121 65.7487 97.0169 66.3137C96.7708 66.3137 96.5247 66.3137 96.2712 66.3137C96.0251 63.3631 95.7789 60.4125 95.5254 57.3725C102.051 54.3922 102.051 54.3922 103.729 54.3922Z" fill="#10AE64"/>
<path d="M108.949 33.5294C109.195 33.5294 109.441 33.5294 109.695 33.5294C109.609 34.8339 109.514 36.1377 109.415 37.4412C109.363 38.1673 109.311 38.8934 109.258 39.6416C108.949 41.7255 108.949 41.7255 107.457 44.7059C107.457 42.4929 107.457 40.28 107.457 38C106.719 38.7377 105.981 39.4753 105.22 40.2353C104.728 39.9894 104.236 39.7435 103.729 39.4902C104.58 38.4945 105.436 37.5016 106.292 36.5098C106.768 35.9566 107.244 35.4033 107.734 34.8333C108.135 34.403 108.536 33.9728 108.949 33.5294Z" fill="#E6D64B"/>
<path d="M162.644 52.1568C164.601 52.0171 164.601 52.0171 166.373 52.1568C166.127 53.3863 165.88 54.6157 165.627 55.8823C164.396 56.1282 163.166 56.3741 161.898 56.6274C161.652 55.8898 161.406 55.1521 161.152 54.3921C161.645 53.6545 162.137 52.9168 162.644 52.1568Z" fill="#05A65E"/>
<path d="M71.6614 63.3333C71.6614 63.5792 71.6614 63.8251 71.6614 64.0784C68.216 64.3243 64.7705 64.5702 61.2207 64.8235C64.9446 62.3431 67.5329 61.1496 71.6614 63.3333Z" fill="#D59C49"/>
<path d="M103.728 54.3922C102.797 56.9696 101.733 58.9722 99.9997 61.098C99.7536 59.3769 99.5075 57.6557 99.2539 55.8823C102.051 54.3922 102.051 54.3922 103.728 54.3922Z" fill="#20AF63"/>
</g>
<defs>
<clipPath id="clip0_9672_3442">
<rect width="220" height="76" fill="white" transform="translate(12)"/>
</clipPath>
</defs>
</svg>
