<svg width="255" height="76" viewBox="0 0 255 76" fill="none" xmlns="http://www.w3.org/2000/svg">
<g clip-path="url(#clip0_9672_3794)">
<path d="M100.176 -0.0317335C100.302 -0.0315486 100.429 -0.0313636 100.559 -0.031173C102.402 -0.026633 104.201 0.0158836 106.014 0.304381C106.135 0.322873 106.257 0.341365 106.382 0.360417C107.944 0.601544 109.477 0.894386 110.977 1.31907C111.079 1.3477 111.18 1.37632 111.284 1.40582C114.636 2.36535 117.702 3.63613 120.522 5.37781C120.637 5.4474 120.751 5.51698 120.869 5.58868C122.985 6.90418 124.997 8.44877 126.593 10.1711C126.765 10.3564 126.94 10.5398 127.115 10.7231C127.926 11.5782 128.645 12.4597 129.304 13.3938C129.354 13.4644 129.404 13.5349 129.456 13.6076C133.758 19.6864 134.661 26.9953 132.438 33.7086C131.216 37.1839 129.115 40.4347 126.249 43.2256C126.158 43.3162 126.158 43.3162 126.064 43.4087C124.614 44.8324 122.987 46.1686 121.159 47.2843C120.972 47.4034 120.972 47.4034 120.782 47.5249C116.614 50.1729 111.625 51.8784 106.412 52.6939C106.317 52.7088 106.222 52.7238 106.124 52.7392C104.187 53.0197 102.236 53.1069 100.271 53.0998C100.164 53.0996 100.056 53.0994 99.9458 53.0992C98.1289 53.094 96.3527 53.0139 94.5599 52.7636C94.3844 52.74 94.3844 52.74 94.2053 52.7158C88.1423 51.8674 82.4585 49.5802 77.9282 46.2792C77.6756 46.0971 77.4178 45.9232 77.1562 45.7496C71.8849 42.0627 68.4408 36.406 67.3248 30.9479C67.3043 30.8521 67.2839 30.7562 67.2628 30.6575C66.1585 25.3039 67.2647 19.6718 70.252 14.8144C70.3015 14.7335 70.351 14.6526 70.402 14.5692C72.4578 11.2474 75.4971 8.17242 79.1606 5.88515C79.2515 5.82381 79.3424 5.76246 79.4361 5.69926C83.4617 3.00567 88.5288 1.25376 93.6532 0.424875C93.7754 0.4051 93.8977 0.385325 94.0236 0.36495C96.0778 0.0514397 98.0882 -0.0380726 100.176 -0.0317335ZM84.7604 12.0747C84.6662 12.1409 84.6662 12.1409 84.5702 12.2083C83.7709 12.7698 83.0228 13.3478 82.3423 14.0026C82.2023 14.1278 82.2023 14.1278 82.0594 14.2555C78.0282 17.9331 76.2205 22.8778 76.488 27.7009C76.881 31.7356 78.8483 36.0031 82.2151 39.0654C82.3033 39.1479 82.3916 39.2305 82.4825 39.3155C83.8393 40.5559 85.5562 41.9779 87.7273 42.1412C88.9394 42.0592 89.8721 41.7265 90.7022 41.0123C91.4463 40.3012 91.6988 39.5427 91.6099 38.6266C91.3561 37.4432 90.2467 36.728 89.1834 35.9635C86.0858 33.7246 84.3499 30.5995 84.108 27.2773C83.9508 23.7613 85.3281 20.3836 88.3273 17.7645C88.6447 17.4983 88.9734 17.242 89.3027 16.9853C89.4108 16.9006 89.5189 16.816 89.6302 16.7288C89.8484 16.5586 90.0678 16.3893 90.2885 16.2211C91.1769 15.5289 91.5595 14.9871 91.6403 13.9856C91.6185 13.1485 91.1778 12.3934 90.4874 11.7703C89.6202 11.1917 88.7757 10.9087 87.6418 10.9344C86.4173 11.0225 85.6602 11.4304 84.7604 12.0747ZM109.705 12.0747C108.916 12.8857 108.809 13.7121 108.941 14.7129C109.292 15.6625 110.175 16.2542 111.089 16.8755C113.987 18.8894 116.019 21.9914 116.323 25.0627C116.539 28.5383 115.756 31.7169 113.014 34.4993C112.926 34.5909 112.839 34.6824 112.749 34.7767C112.127 35.4093 111.449 35.9459 110.697 36.4771C110.19 36.8393 109.712 37.1861 109.355 37.6512C109.303 37.7172 109.251 37.7833 109.198 37.8513C108.815 38.4416 108.849 39.1306 108.941 39.7757C109.303 40.6681 109.931 41.3525 110.963 41.8102C111.959 42.1741 112.95 42.216 113.976 41.9156C115.245 41.4637 116.226 40.738 117.213 39.9786C117.361 39.8727 117.361 39.8727 117.511 39.7646C118.936 38.7062 120.014 37.2902 120.904 35.9199C120.954 35.8441 121.003 35.7683 121.054 35.6903C123.997 31.1271 124.937 25.8489 122.993 20.906C121.535 17.3804 118.555 12.9997 114.239 11.2186C112.539 10.6345 110.951 11.0191 109.705 12.0747ZM95.3156 22.9735C94.0641 24.3394 93.4182 25.7156 93.7282 27.4167C94.1021 28.9072 95.1378 30.1407 96.7026 31.0181C98.3126 31.7943 100.042 32.0831 101.892 31.7878C103.822 31.3417 105.404 30.4366 106.396 29.02C107.212 27.5869 107.418 26.2646 106.778 24.7583C106.027 23.2494 104.709 22.2423 102.92 21.5192C100.328 20.6904 97.1441 21.2699 95.3156 22.9735Z" fill="#CDA962"/>
<path d="M184.664 1.52202C189.865 1.51504 195.066 1.50968 200.267 1.50648C200.883 1.5061 201.498 1.5057 202.114 1.5053C202.297 1.50518 202.297 1.50518 202.485 1.50506C204.463 1.50374 206.441 1.50134 208.419 1.49854C210.452 1.49568 212.485 1.494 214.518 1.49338C215.77 1.49297 217.022 1.49166 218.274 1.48917C219.136 1.48755 219.997 1.48708 220.858 1.48747C221.353 1.48767 221.849 1.48739 222.344 1.48574C230.301 1.4605 237.814 3.24919 243.843 7.50867C243.953 7.58466 244.062 7.66066 244.175 7.73896C245.495 8.6679 246.704 9.64845 247.788 10.7557C247.889 10.8543 247.989 10.9529 248.093 11.0545C251.919 14.8818 254.38 20.0058 254.437 24.9161C254.438 25.0065 254.439 25.0969 254.44 25.19C254.463 27.2131 254.429 29.164 253.897 31.1509C253.871 31.252 253.845 31.3532 253.819 31.4575C252.673 35.8291 249.904 39.9639 245.975 43.1464C245.75 43.3287 245.528 43.513 245.307 43.6977C244.335 44.4988 243.312 45.202 242.189 45.8638C242.117 45.9066 242.046 45.9495 241.972 45.9937C236.606 49.206 230.16 50.7783 223.486 50.7573C223.224 50.7573 222.961 50.7573 222.698 50.7574C222.002 50.7574 221.305 50.7563 220.609 50.7548C219.952 50.7537 219.296 50.7536 218.64 50.7535C216.727 50.7524 214.814 50.7496 212.901 50.747C208.623 50.7428 204.344 50.7386 199.936 50.7343C199.936 37.9432 199.936 25.152 199.936 11.9733C198.928 11.9733 197.92 11.9733 196.882 11.9733C196.19 11.544 195.835 11.2935 195.354 10.7557C195.205 10.6168 195.055 10.4792 194.901 10.3434C194.834 10.2805 194.767 10.2176 194.698 10.1528C194.342 9.83527 193.959 9.53952 193.579 9.24057C193.165 8.91362 192.781 8.57475 192.403 8.22172C192.023 7.88233 191.612 7.5682 191.206 7.24866C190.868 6.97567 190.556 6.69025 190.244 6.39886C189.965 6.15008 189.671 5.91674 189.373 5.68224C189 5.38839 188.639 5.09347 188.299 4.77536C187.879 4.38305 187.422 4.02258 186.962 3.66052C186.541 3.32764 186.147 2.98315 185.763 2.62312C185.469 2.35782 185.15 2.11472 184.828 1.87161C184.664 1.72496 184.664 1.72496 184.664 1.52202ZM213.045 11.9733C213.045 21.3155 213.045 30.6577 213.045 40.283C225.068 40.7683 225.068 40.7683 235.062 36.9346C235.166 36.8638 235.27 36.793 235.378 36.7201C236.789 35.7369 237.907 34.6528 238.88 33.3832C238.949 33.293 238.949 33.293 239.02 33.2009C240.142 31.7147 240.81 30.0148 241.171 28.3097C241.194 28.2076 241.217 28.1054 241.241 28.0002C241.633 25.232 241.084 22.6127 239.643 20.0908C239.587 19.992 239.532 19.8933 239.474 19.7915C237.559 16.5748 233.906 14.0384 229.731 12.8163C224.351 11.3209 218.764 11.9733 213.045 11.9733Z" fill="#AC8445"/>
<path d="M36.2714 1.82643C36.3911 1.8433 36.5107 1.86018 36.634 1.87756C43.3969 2.8644 49.0803 5.65246 53.8343 9.53804C53.4089 10.2502 52.5947 10.739 51.8552 11.2464C51.4362 11.5415 51.0288 11.8461 50.6208 12.1509C49.7881 12.7728 48.9496 13.3891 48.1073 14.0027C47.9165 14.142 47.7258 14.2813 47.5352 14.4207C47.4083 14.5135 47.2813 14.6063 47.1543 14.699C46.8262 14.9387 46.4985 15.1787 46.1714 15.4193C46.104 15.4688 46.0366 15.5183 45.9671 15.5693C45.7806 15.7063 45.5942 15.8434 45.4078 15.9805C45.0422 16.2426 44.6688 16.4933 44.2892 16.7423C43.7994 16.5836 43.5119 16.336 43.1518 16.032C40.0273 13.4759 35.6405 12.1437 31.2048 12.046C26.3956 11.9988 21.9254 13.4548 18.4476 16.0924C15.6788 18.2531 14.0016 21.0167 13.3634 24.0481C13.3415 24.142 13.3196 24.236 13.297 24.3328C12.993 25.9499 13.1142 27.7392 13.6179 29.3244C13.6497 29.4277 13.6497 29.4277 13.682 29.5331C14.3618 31.7033 15.6146 33.6118 17.4359 35.3111C17.5247 35.3954 17.6134 35.4798 17.7049 35.5667C18.3938 36.2019 19.1421 36.7327 19.9813 37.239C20.104 37.313 20.2267 37.387 20.3531 37.4633C24.153 39.6548 28.8561 40.6271 33.5206 40.0983C36.868 39.6481 39.6717 38.5817 42.253 36.8331C42.5072 36.6679 42.7617 36.503 43.0166 36.3384C43.3764 36.1058 43.7065 35.8771 44.0347 35.6155C44.0767 34.8118 44.1187 34.0082 44.162 33.1802C39.0382 33.1802 33.9144 33.1802 28.6354 33.1802C29.2076 32.496 29.2076 32.496 29.5805 32.2076C29.7004 32.1137 29.7004 32.1137 29.8227 32.018C29.906 31.9537 29.9893 31.8893 30.0751 31.8231C30.6508 31.372 31.2112 30.9213 31.7321 30.4291C32.1044 30.0933 32.5116 29.7847 32.9113 29.4699C33.1708 29.2603 33.4149 29.0474 33.6545 28.8234C34.0752 28.4309 34.5319 28.0702 34.9925 27.7079C35.406 27.3809 35.7909 27.0421 36.1685 26.689C36.5483 26.3496 36.9595 26.0355 37.3651 25.7159C37.6274 25.5041 37.8744 25.2888 38.1168 25.0627C38.5589 24.6504 39.0404 24.2741 39.5242 23.8931C39.9458 23.5527 40.3364 23.1941 40.7258 22.8304C40.853 22.729 40.853 22.729 41.1251 22.7165C41.246 22.7166 41.367 22.7167 41.4916 22.7168C41.6299 22.7166 41.7682 22.7165 41.9107 22.7163C42.0638 22.7167 42.2169 22.7171 42.3746 22.7174C42.5347 22.7174 42.6949 22.7174 42.8599 22.7174C43.3003 22.7174 43.7407 22.718 44.1811 22.7187C44.6409 22.7193 45.1007 22.7194 45.5605 22.7195C46.4317 22.7198 47.303 22.7206 48.1743 22.7217C49.1659 22.7228 50.1576 22.7233 51.1492 22.7239C53.1896 22.7249 55.2301 22.7267 57.2705 22.729C57.2824 24.5531 57.2914 26.3772 57.2969 28.2014C57.2995 29.0485 57.303 29.8957 57.3089 30.7428C57.314 31.4819 57.3172 32.2209 57.3184 32.96C57.319 33.3507 57.3206 33.7414 57.3243 34.1321C57.3419 36.0407 57.3292 37.7849 56.2364 39.5347C56.1872 39.6152 56.138 39.6956 56.0872 39.7785C55.3522 40.9434 54.3787 41.9169 53.2571 42.8586C53.0062 43.071 52.7695 43.2856 52.5377 43.511C52.1245 43.8992 51.6484 44.2168 51.1617 44.5447C51.0527 44.6225 50.9438 44.7004 50.8316 44.7805C46.5097 47.8137 41.3541 49.881 35.6351 50.5314C35.4799 50.5492 35.3248 50.5671 35.1649 50.5854C33.7455 50.7388 32.3414 50.7709 30.9103 50.766C30.7958 50.7658 30.6813 50.7656 30.5634 50.7653C23.3449 50.7433 16.3006 48.7232 10.818 44.9506C10.6714 44.8505 10.6714 44.8505 10.5217 44.7484C8.89161 43.608 7.39281 42.3873 6.10915 40.9933C6.00128 40.8788 5.8934 40.7642 5.78552 40.6497C3.0194 37.6758 1.3122 34.2543 0.382139 30.6435C0.359315 30.5587 0.336491 30.4739 0.312975 30.3865C-0.385693 27.6804 -0.332971 24.4136 0.382139 21.7143C0.408101 21.6112 0.434062 21.5081 0.460811 21.4019C1.54614 17.1496 3.86732 13.1909 7.50909 9.94392C7.60408 9.85707 7.69907 9.77022 7.79693 9.68073C8.95889 8.62958 10.1867 7.65313 11.5816 6.79839C11.6509 6.75567 11.7203 6.71295 11.7917 6.66893C16.0388 4.0666 20.9416 2.42481 26.2173 1.72496C26.3668 1.70475 26.3668 1.70475 26.5192 1.68414C29.6634 1.28196 33.1476 1.37865 36.2714 1.82643Z" fill="#D3B067"/>
<path d="M144.957 1.52203C149.325 1.52203 153.693 1.52203 158.193 1.52203C158.193 14.3132 158.193 27.1043 158.193 40.283C169.49 40.283 180.788 40.283 192.428 40.283C192.18 40.6779 191.969 40.8698 191.577 41.1709C191.189 41.4729 190.814 41.774 190.463 42.1031C190.042 42.4957 189.586 42.8563 189.125 43.2186C188.711 43.5456 188.327 43.8845 187.949 44.2375C187.569 44.5771 187.158 44.8913 186.752 45.211C186.492 45.4206 186.248 45.6335 186.009 45.8575C185.588 46.25 185.131 46.6107 184.671 46.973C184.257 47.2999 183.872 47.6388 183.495 47.9919C183.115 48.3308 182.705 48.6446 182.299 48.9638C181.962 49.2364 181.646 49.5191 181.338 49.8128C181.221 49.9173 181.221 49.9173 181.101 50.024C181.046 50.0811 180.99 50.1382 180.934 50.197C180.622 50.4893 180.371 50.7007 179.896 50.7998C179.517 50.8238 179.146 50.8256 178.765 50.8197C178.548 50.8206 178.548 50.8206 178.327 50.8216C177.842 50.8227 177.358 50.8188 176.873 50.8149C176.52 50.8143 176.167 50.8148 175.814 50.8152C174.964 50.8156 174.114 50.8123 173.264 50.8077C172.281 50.8026 171.297 50.8021 170.314 50.8015C167.719 50.7978 165.123 50.7879 162.528 50.7787C156.729 50.764 150.931 50.7494 144.957 50.7343C144.957 34.4943 144.957 18.2542 144.957 1.52203Z" fill="#BA9452"/>
<path d="M142.029 63.8238C143.825 63.8175 145.62 63.8112 147.47 63.8047C148.034 63.802 148.598 63.7992 149.179 63.7963C149.875 63.795 149.875 63.795 150.203 63.7947C150.428 63.7942 150.654 63.7932 150.879 63.7916C154.463 63.7681 154.463 63.7681 155.774 64.737C156.645 65.5072 156.779 66.477 156.792 67.4766C156.731 68.4001 156.491 69.1668 155.742 69.8802C155.627 69.9576 155.511 70.035 155.392 70.1148C155.328 70.1586 155.263 70.2024 155.197 70.2476C154.361 70.7411 153.34 70.8072 152.338 70.9266C152.47 71.05 152.47 71.05 152.604 71.1759C153.176 71.7128 153.746 72.2505 154.303 72.7974C154.745 73.2306 155.197 73.6555 155.655 74.0784C157.429 75.7223 157.429 75.7223 157.429 76C156.904 75.9049 156.381 75.8077 155.859 75.7059C155.498 75.6359 155.145 75.5775 154.778 75.5267C153.464 75.3132 152.894 74.7688 152.125 73.9476C151.886 73.6927 151.631 73.4485 151.375 73.2033C151.286 73.115 151.196 73.0267 151.103 72.9357C150.706 72.5497 150.301 72.1692 149.895 71.7892C149.643 71.5534 149.406 71.3269 149.199 71.0646C148.858 70.7897 148.657 70.763 148.181 70.7521C148.09 70.7525 147.999 70.7529 147.905 70.7533C147.821 70.7519 147.736 70.7504 147.649 70.7488C147.335 70.7441 147.021 70.7436 146.706 70.7426C146.003 70.7364 145.299 70.7301 144.575 70.7236C144.575 72.1969 144.575 73.6703 144.575 75.1882C143.416 75.6503 143.416 75.6503 142.872 75.8224C142.713 75.8734 142.713 75.8734 142.551 75.9255C142.284 76 142.284 76 142.029 76C142.029 71.9818 142.029 67.9637 142.029 63.8238ZM144.702 65.6502C144.702 66.7887 144.702 67.9271 144.702 69.1001C145.679 69.1086 146.656 69.1168 147.633 69.1211C148.088 69.1233 148.544 69.1261 148.999 69.1307C149.438 69.1352 149.877 69.1376 150.316 69.1386C150.563 69.1397 150.811 69.1429 151.058 69.1461C151.972 69.1463 152.584 69.0949 153.356 68.6942C153.951 68.1956 154.031 67.7868 154.019 67.1215C153.965 66.6126 153.697 66.3007 153.229 65.9736C152.698 65.6649 152.35 65.6376 151.709 65.6387C151.554 65.6387 151.398 65.6387 151.238 65.6387C151.07 65.6392 150.903 65.6397 150.73 65.6403C150.556 65.6405 150.383 65.6406 150.209 65.6407C149.753 65.6411 149.297 65.6421 148.84 65.6432C148.374 65.6443 147.909 65.6447 147.443 65.6452C146.529 65.6463 145.616 65.6483 144.702 65.6502Z" fill="#FEFEFE"/>
<path d="M77.6328 63.8237C80.3054 63.8237 80.3054 63.8237 81.1008 64.4135C81.2909 64.6113 81.2909 64.6113 81.4175 64.7805C81.6736 65.1072 81.9581 65.3996 82.2701 65.6946C82.3618 65.7844 82.4535 65.8743 82.548 65.9669C82.9627 66.3669 83.3878 66.7596 83.8127 67.1527C84.2931 67.5982 84.7607 68.051 85.2251 68.5071C85.5734 68.8441 85.9295 69.1752 86.287 69.506C86.8332 70.0113 87.3675 70.523 87.8947 71.0411C88.3236 71.4558 88.7636 71.8627 89.2049 72.269C89.2667 72.326 89.3284 72.3831 89.3921 72.4418C89.4468 72.4921 89.5015 72.5424 89.5578 72.5942C89.7484 72.7772 89.926 72.9686 90.105 73.1588C90.147 70.3461 90.189 67.5334 90.2322 64.6355C91.6322 64.1281 91.6322 64.1281 92.7776 63.8237C92.7776 67.8419 92.7776 71.86 92.7776 76C90.105 76 90.105 76 89.4607 75.5307C89.2915 75.3161 89.1247 75.1004 88.9596 74.8838C88.7157 74.6394 88.456 74.407 88.196 74.1735C88.0644 74.0522 87.9332 73.9307 87.8022 73.8089C87.7392 73.7503 87.6762 73.6917 87.6113 73.6313C87.2626 73.3038 86.9248 72.9692 86.5853 72.6356C86.2369 72.2987 85.8809 71.9676 85.5234 71.6368C85.071 71.2183 84.6239 70.7975 84.1871 70.3685C83.6297 69.8214 83.0548 69.2872 82.4784 68.7529C82.0891 68.392 81.7018 68.0299 81.3156 67.6669C81.258 67.6128 81.2003 67.5588 81.1409 67.5032C80.8499 67.2293 80.5759 66.9524 80.3054 66.6649C80.2634 69.4776 80.2214 72.2903 80.1782 75.1882C78.7782 75.6956 78.7782 75.6956 77.6328 76C77.6328 71.9818 77.6328 67.9636 77.6328 63.8237Z" fill="#FEFEFE"/>
<path d="M121.031 63.8237C125.735 63.8237 130.439 63.8237 135.285 63.8237C135.158 64.3311 135.158 64.3311 134.394 65.5487C130.866 65.5487 127.339 65.5487 123.704 65.5487C123.704 66.7207 123.704 67.8926 123.704 69.1001C126.686 69.1001 129.668 69.1001 132.74 69.1001C132.74 69.6693 132.74 70.2386 132.74 70.8251C129.758 70.8251 126.776 70.8251 123.704 70.8251C123.704 71.9635 123.704 73.102 123.704 74.275C127.274 74.275 130.844 74.275 134.522 74.275C135.54 75.797 135.54 75.797 135.54 76C130.752 76 125.964 76 121.031 76C121.031 71.9818 121.031 67.9636 121.031 63.8237Z" fill="#FEFEFE"/>
<path d="M56.6348 63.8237C61.3386 63.8237 66.0423 63.8237 70.8887 63.8237C70.7614 64.3311 70.7614 64.3311 69.9978 65.5487C66.47 65.5487 62.9421 65.5487 59.3074 65.5487C59.3074 66.7207 59.3074 67.8926 59.3074 69.1001C62.2892 69.1001 65.2711 69.1001 68.3433 69.1001C68.3433 69.6693 68.3433 70.2386 68.3433 70.8251C65.3615 70.8251 62.3796 70.8251 59.3074 70.8251C59.3074 71.9635 59.3074 73.102 59.3074 74.275C62.8772 74.275 66.4471 74.275 70.1251 74.275C71.1432 75.797 71.1432 75.797 71.1432 76C66.3554 76 61.5676 76 56.6348 76C56.6348 71.9818 56.6348 67.9636 56.6348 63.8237Z" fill="#FEFEFE"/>
<path d="M173.465 63.8237C178.169 63.8237 182.872 63.8237 187.719 63.8237C187.591 64.3311 187.591 64.3311 186.828 65.5487C183.3 65.5487 179.772 65.5487 176.137 65.5487C176.137 66.7207 176.137 67.8926 176.137 69.1001C179.119 69.1001 182.101 69.1001 185.173 69.1001C185.173 69.6693 185.173 70.2386 185.173 70.8251C182.192 70.8251 179.21 70.8251 176.137 70.8251C176.137 72.2649 176.137 73.7047 176.137 75.1882C174.97 75.6535 174.97 75.6535 174.443 75.8224C174.286 75.8734 174.286 75.8734 174.127 75.9254C173.847 76 173.847 76 173.465 76C173.465 71.9818 173.465 67.9636 173.465 63.8237Z" fill="#FDFDFD"/>
<path d="M42.6079 63.8039C42.8226 63.8043 43.0373 63.8046 43.2519 63.8048C43.8118 63.8055 44.3717 63.8075 44.9315 63.8098C45.5049 63.8119 46.0783 63.8128 46.6516 63.8138C47.7729 63.816 48.8941 63.8194 50.0153 63.8237C49.8495 64.2562 49.6404 64.6345 49.363 65.0287C49.2944 65.1268 49.2259 65.2249 49.1552 65.3259C49.1031 65.3994 49.0509 65.473 48.9971 65.5487C48.8479 65.5496 48.8479 65.5496 48.6956 65.5505C47.7539 65.5564 46.8122 65.5637 45.8705 65.5726C45.3865 65.5771 44.9025 65.5811 44.4184 65.5838C43.9505 65.5865 43.4826 65.5906 43.0148 65.5957C42.837 65.5974 42.6593 65.5986 42.4816 65.5992C41.3289 65.6037 40.3583 65.6544 39.3487 66.1195C38.5537 66.8076 38.4862 67.5901 38.4981 68.4885C38.4979 68.6024 38.4977 68.7163 38.4975 68.8337C38.4978 69.0732 38.4992 69.3127 38.5019 69.5523C38.5056 69.9175 38.5045 70.2825 38.5028 70.6477C38.5036 70.8813 38.5047 71.115 38.5061 71.3487C38.5057 71.457 38.5053 71.5654 38.5049 71.677C38.5159 72.3746 38.5821 73.0008 39.1484 73.5671C39.2554 73.635 39.2554 73.635 39.3646 73.7042C39.4702 73.7745 39.4702 73.7745 39.5779 73.8461C40.1852 74.1414 40.7782 74.1997 41.4786 74.2059C41.5631 74.2069 41.6477 74.2079 41.7347 74.209C42.0116 74.2121 42.2883 74.2138 42.5652 74.2155C42.7581 74.2174 42.9511 74.2194 43.144 74.2215C43.6499 74.2267 44.1558 74.2307 44.6617 74.2345C45.1787 74.2386 45.6957 74.2437 46.2127 74.2488C47.2257 74.2586 48.2387 74.2671 49.2517 74.275C49.5877 74.8442 49.9236 75.4135 50.2698 76C48.9333 76.0069 47.5968 76.0124 46.2603 76.0157C45.6396 76.0173 45.0189 76.0195 44.3982 76.0229C43.7983 76.0263 43.1984 76.0281 42.5985 76.0288C42.3705 76.0294 42.1426 76.0305 41.9146 76.0321C40.164 76.0443 38.603 75.9776 37.1613 75.0867C36.203 74.3227 35.7505 73.2566 35.7409 72.1915C35.739 72.0263 35.739 72.0263 35.7372 71.8578C35.7366 71.7396 35.7361 71.6214 35.7355 71.4997C35.7348 71.3769 35.7341 71.2542 35.7333 71.1277C35.7321 70.8679 35.7313 70.6081 35.7308 70.3483C35.7296 69.9535 35.7256 69.5587 35.7216 69.1639C35.7208 68.9109 35.7201 68.6579 35.7196 68.4049C35.718 68.2879 35.7165 68.171 35.7148 68.0505C35.7188 66.8979 36.0048 65.8631 36.9068 64.9399C38.4732 63.7367 40.577 63.7933 42.6079 63.8039Z" fill="#FDFDFD"/>
<path d="M202.863 63.8237C208.071 63.8237 213.279 63.8237 218.644 63.8237C218.39 64.4325 218.39 64.4325 217.626 65.5487C215.778 65.5487 213.93 65.5487 212.027 65.5487C212.027 68.9976 212.027 72.4465 212.027 76C211.145 76 210.263 76 209.354 76C209.354 72.551 209.354 69.1021 209.354 65.5487C207.506 65.5487 205.658 65.5487 203.754 65.5487C202.863 64.1281 202.863 64.1281 202.863 63.8237Z" fill="#FEFEFE"/>
<path d="M99.0137 63.8237C104.221 63.8237 109.429 63.8237 114.795 63.8237C114.668 64.3311 114.668 64.3311 113.904 65.5487C112.056 65.5487 110.208 65.5487 108.304 65.5487C108.304 68.9976 108.304 72.4465 108.304 76C107.422 76 106.54 76 105.632 76C105.632 72.551 105.632 69.1021 105.632 65.5487C103.784 65.5487 101.936 65.5487 100.032 65.5487C99.0137 64.0267 99.0137 64.0267 99.0137 63.8237Z" fill="#FEFEFE"/>
<path d="M193.955 63.8237C194.859 64.0641 195.748 64.3431 196.628 64.6355C196.628 68.3858 196.628 72.136 196.628 76C195.355 75.6956 195.355 75.6956 193.955 75.1882C193.955 71.4379 193.955 67.6877 193.955 63.8237Z" fill="#FEFEFE"/>
</g>
<defs>
<clipPath id="clip0_9672_3794">
<rect width="254.407" height="76" fill="white"/>
</clipPath>
</defs>
</svg>
