<svg width="238" height="56" viewBox="0 0 238 56" fill="none" xmlns="http://www.w3.org/2000/svg">
<g clip-path="url(#clip0_9672_3384)">
<path d="M41.533 4.42608C41.6485 4.4558 41.764 4.48553 41.8831 4.51615C48.1849 6.19042 53.5918 9.8917 56.9256 15.5515C59.1719 19.4959 60.29 23.7985 60.2669 28.3284C60.2666 28.4376 60.2663 28.5468 60.2659 28.6593C60.2587 30.2714 60.2072 31.8305 59.7943 33.3965C59.7518 33.5632 59.7518 33.5632 59.7084 33.7333C58.5806 38.0513 56.3322 41.7041 53.2316 44.8995C53.0971 45.0424 52.9626 45.1853 52.8282 45.3283C48.7788 49.5677 42.7875 51.7712 36.991 52.0239C31.0932 52.0563 25.0342 50.4321 20.561 46.4616C20.3745 46.299 20.3745 46.299 20.1842 46.1332C19.1001 45.1768 18.1023 44.2037 17.2261 43.0533C17.146 42.9482 17.0659 42.8432 16.9833 42.7349C14.9541 40.0326 13.4862 36.9794 12.6073 33.7249C12.5789 33.6205 12.5506 33.5161 12.5214 33.4085C12.0848 31.7138 11.9511 30.0542 11.9559 28.3125C11.9564 27.9763 11.953 27.6403 11.9494 27.3041C11.9406 25.2327 12.2282 23.2249 12.8213 21.2367C12.8761 21.0504 12.8761 21.0504 12.932 20.8603C13.2874 19.6911 13.7413 18.5859 14.2836 17.4912C14.3281 17.4008 14.3726 17.3104 14.4185 17.2173C15.0744 15.9025 15.8282 14.6945 16.709 13.5148C16.8002 13.392 16.8914 13.2692 16.9854 13.1426C20.4782 8.68119 25.191 5.74228 30.6903 4.42608C30.8434 4.38788 30.8434 4.38788 30.9996 4.3489C34.1977 3.58563 38.3502 3.60612 41.533 4.42608Z" fill="#ED242C"/>
<path d="M80.9526 9.05912C81.4322 9.12574 81.8481 9.05022 82.3224 8.96482C82.62 8.97036 82.62 8.97036 82.8535 9.16785C82.9177 9.24327 82.9819 9.31869 83.048 9.3964C83.151 9.46084 83.254 9.52527 83.3601 9.59166C83.4454 9.66782 83.5308 9.74397 83.6187 9.82243C83.6248 10.059 83.6245 10.2959 83.6187 10.5325C83.6877 10.614 83.7566 10.6954 83.8277 10.7793C84.1236 11.2133 84.1043 11.5385 84.118 12.0591C84.1594 12.8858 84.2924 13.4702 84.6174 14.2248C84.638 14.38 84.6585 14.5353 84.6798 14.6952C84.7253 15.0977 84.7253 15.0977 85.0543 15.3431C85.1455 15.3959 85.2367 15.4486 85.3307 15.5029C85.2433 15.9235 85.1518 16.125 84.9027 16.497C85.091 16.5439 85.2793 16.5907 85.4734 16.639C85.4056 16.986 85.3366 17.3279 85.2415 17.6686C85.215 17.7916 85.215 17.7916 85.188 17.9171C85.2351 17.964 85.2822 18.0108 85.3307 18.0591C85.3871 18.345 85.4366 18.6323 85.4823 18.9201C85.5075 19.077 85.5327 19.2338 85.5586 19.3955C85.587 19.5775 85.587 19.5775 85.616 19.7633C85.6116 19.63 85.6072 19.4967 85.6026 19.3594C85.6182 18.8382 85.7794 18.6401 86.044 18.2011C86.0498 17.9172 86.0501 17.633 86.044 17.3491C86.0896 17.2652 86.1352 17.1814 86.1822 17.095C86.3747 16.6843 86.3742 16.3361 86.3918 15.8846C86.4385 15.1311 86.5448 14.6038 86.9 13.9408C87.0816 13.6541 87.0816 13.6541 86.9624 13.3017C86.9418 13.1846 86.9212 13.0674 86.9 12.9467C86.9942 12.853 87.0883 12.7592 87.1854 12.6627C87.135 12.3617 87.0432 12.096 86.9357 11.8106C86.9239 11.7169 86.9121 11.6231 86.9 11.5266C87.0018 11.3994 87.0018 11.3994 87.1057 11.2697C87.3655 10.9061 87.3855 10.679 87.4261 10.2396C87.4974 9.86293 87.4974 9.86293 87.6134 9.53841C88.7383 8.79191 90.4126 9.01093 91.6972 9.21001C92.3136 9.35499 92.6571 9.58506 93.0347 10.1065C93.2316 10.7085 93.2316 10.7085 93.0347 11.1005C92.7522 11.1005 92.4697 11.1005 92.1787 11.1005C92.1816 11.2148 92.1846 11.329 92.1876 11.4467C92.1787 11.8106 92.1787 11.8106 92.036 11.9526C91.7983 11.9584 91.5604 11.9587 91.3227 11.9526C91.3013 15.1706 91.3013 15.1706 91.3762 18.3875C91.3806 18.5219 91.385 18.6563 91.3895 18.7947C91.3951 18.9176 91.4006 19.0404 91.4063 19.1669C91.413 19.3254 91.413 19.3254 91.4199 19.4872C91.4532 19.8087 91.4532 19.8087 91.7507 20.1893C91.9839 20.3386 92.2213 20.4818 92.464 20.6153C92.3934 20.8965 92.3934 20.8965 92.3214 21.1834C92.0389 21.1834 91.7564 21.1834 91.4654 21.1834C91.5124 21.324 91.5595 21.4646 91.608 21.6094C91.8434 21.6563 92.0788 21.7031 92.3214 21.7514C92.3214 21.9389 92.3214 22.1263 92.3214 22.3195C92.1801 22.3898 92.1801 22.3898 92.036 22.4615C92.1048 22.5181 92.1736 22.5746 92.2444 22.6329C92.3346 22.7081 92.4247 22.7834 92.5175 22.8609C92.6069 22.935 92.6963 23.0092 92.7884 23.0856C93.1241 23.3963 93.3139 23.6217 93.3379 24.0857C93.1197 24.5804 92.8515 24.6737 92.373 24.899C91.7907 25.1041 91.2302 25.0998 90.6183 25.0887C90.4981 25.0909 90.3779 25.0931 90.2541 25.0954C89.3945 25.0901 88.6232 24.9341 87.8987 24.4497C87.8516 24.3091 87.8045 24.1685 87.756 24.0236C87.4295 23.964 87.4295 23.964 87.0427 24.0236C86.9397 24.1378 86.8367 24.2521 86.7306 24.3698C86.1658 24.882 85.644 24.8599 84.9027 24.8757C84.5492 24.0362 84.2431 23.2034 84.0054 22.3239C83.918 22.0083 83.918 22.0083 83.6187 21.7514C83.6662 21.4674 83.7138 21.1834 83.7614 20.8994C83.6201 20.7588 83.6201 20.7588 83.476 20.6153C83.4162 20.2199 83.3694 19.8325 83.3334 19.4349C83.253 18.4297 83.253 18.4297 82.9054 17.4911C82.6142 17.3651 82.6142 17.3651 82.3347 17.3491C82.4058 16.8254 82.4917 16.5531 82.9054 16.213C82.717 16.1661 82.5287 16.1192 82.3347 16.071C82.4128 15.5917 82.4852 15.3492 82.7627 14.9349C82.6214 14.888 82.4802 14.8411 82.3347 14.7928C82.2876 14.5117 82.2405 14.2305 82.192 13.9408C82.1396 14.224 82.0937 14.5083 82.0494 14.7928C82.0324 14.8961 82.0155 14.9993 81.9981 15.1057C81.9079 15.7682 81.9094 16.3284 82.0404 16.9852C82.1887 17.7496 82.2096 18.4736 82.2009 19.2485C82.1996 19.4807 82.1983 19.713 82.197 19.9452C82.195 20.27 82.1924 20.5946 82.1864 20.9193C82.1292 21.9694 82.1292 21.9694 82.5782 22.8581C82.874 23.0436 82.874 23.0436 83.189 23.1782C83.5928 23.3686 83.7981 23.6628 84.0467 24.0236C83.8223 24.5719 83.5172 24.9385 83.048 25.3017C82.6289 25.2751 82.6289 25.2751 82.3737 25.2146C81.9372 25.1407 81.5197 25.1646 81.0774 25.1775C80.21 25.1848 79.4174 25.1081 78.6254 24.7337C78.4503 24.3852 78.4539 24.1372 78.447 23.7485C78.4433 23.6242 78.4397 23.4999 78.4359 23.3718C78.4827 23.0295 78.4827 23.0295 78.6755 22.7766C78.9781 22.5539 79.258 22.5286 79.624 22.4615C80.2086 21.2978 79.9313 19.4433 79.928 18.1544C79.9272 17.7999 79.928 17.4454 79.9289 17.0908C79.9288 16.8624 79.9286 16.6339 79.9283 16.4055C79.9286 16.301 79.9289 16.1965 79.9292 16.0889C79.9263 15.4552 79.8663 14.8524 79.7667 14.2248C79.761 13.9971 79.7605 13.7691 79.7667 13.5414C79.7757 12.8147 79.7103 12.1056 79.624 11.3846C79.3886 11.4314 79.1532 11.4783 78.9107 11.5266C78.0547 10.5871 78.0547 10.5871 78.0547 9.96445C78.3468 9.34665 78.8672 9.20379 79.4814 8.97036C79.9593 8.7325 80.4523 8.92453 80.9526 9.05912ZM88.8974 13.6568C88.6182 14.133 88.5468 14.5594 88.4783 15.1035C88.3811 15.7862 88.2361 16.3944 88.0029 17.0412C87.6706 18.0228 87.5998 18.9494 87.6217 19.9785C87.6112 20.4215 87.5014 20.7772 87.328 21.1834C87.1515 21.592 87.1515 21.592 87.2567 21.9556C87.3299 22.3292 87.3046 22.5315 87.1854 22.8875C87.4243 23.1341 87.4243 23.1341 87.756 23.3136C88.1228 23.2267 88.1228 23.2267 88.4694 23.0295C88.5672 22.9902 88.665 22.9508 88.7658 22.9103C89.0564 22.7699 89.0564 22.7699 89.1582 22.4981C89.3146 21.7109 89.3423 20.9646 89.3248 20.1627C89.3253 19.8192 89.3532 19.5141 89.4145 19.1775C89.4322 19.0427 89.4498 18.908 89.468 18.7692C89.3739 18.6755 89.2797 18.5817 89.1827 18.4852C89.2391 18.1371 89.3557 17.8264 89.468 17.4911C89.4445 17.3505 89.4209 17.2099 89.3967 17.065C89.3254 16.639 89.3254 16.639 89.468 16.213C89.3739 16.0724 89.2797 15.9318 89.1827 15.7869C89.1624 15.4174 89.1559 15.0639 89.1649 14.6952C89.1661 14.5955 89.1674 14.4959 89.1688 14.3932C89.1721 14.1477 89.1772 13.9022 89.1827 13.6568C89.0885 13.6568 88.9944 13.6568 88.8974 13.6568Z" fill="white"/>
<path d="M190.919 12.3754C191.701 12.8291 192.257 13.3474 192.651 14.1716C193.004 15.7517 192.918 17.4083 192.91 19.0178C192.909 19.2563 192.909 19.4949 192.908 19.7334C192.906 20.3114 192.904 20.8895 192.901 21.4675C193.01 21.5096 193.12 21.5517 193.233 21.5951C193.697 21.7853 193.986 21.9499 194.328 22.3196C194.439 23.0168 194.43 23.2895 194.06 23.8906C193.49 24.2422 193.196 24.1731 192.553 24.0703C192.199 24.0252 191.923 24.0392 191.572 24.0947C191.08 24.1612 190.806 24.1324 190.333 24.0237C189.845 24.0057 189.397 24.0129 188.915 24.0958C188.127 24.2126 187.33 24.1749 186.535 24.1657C186.218 24.1621 185.901 24.1591 185.584 24.1568C185.375 24.1544 185.375 24.1544 185.162 24.1518C184.777 24.1654 184.431 24.2302 184.056 24.3077C183.865 24.2634 183.675 24.2157 183.485 24.1657C182.97 24.1464 182.519 24.1589 182.014 24.2634C181.312 24.3226 180.696 24.1879 180.061 23.8817C179.799 23.6221 179.799 23.6221 179.633 23.3136C179.644 22.9936 179.644 22.9936 179.731 22.6657C179.758 22.5572 179.785 22.4486 179.813 22.3368C179.918 22.0355 179.918 22.0355 180.204 21.6095C180.65 21.5829 180.65 21.5829 181.06 21.6095C181.067 20.8389 181.072 20.0684 181.075 19.2978C181.077 19.036 181.079 18.7742 181.081 18.5123C181.085 18.1348 181.086 17.7572 181.088 17.3797C181.089 17.2636 181.09 17.1476 181.092 17.0281C181.092 16.3253 181.037 15.7338 180.774 15.077C180.279 14.8114 180.279 14.8114 179.776 14.6509C179.603 14.308 179.599 14.0662 179.588 13.6835C179.583 13.5625 179.578 13.4415 179.572 13.3168C179.659 12.7873 179.787 12.5821 180.204 12.2367C180.683 12.1661 181.141 12.2092 181.621 12.2545C181.749 12.2633 181.877 12.272 182.008 12.2811C182.504 12.3177 182.975 12.3591 183.459 12.4753C183.871 12.5355 184.102 12.3938 184.484 12.2367C184.944 12.204 184.944 12.204 185.429 12.2101C185.67 12.2115 185.67 12.2115 185.916 12.2129C186.338 12.2367 186.338 12.2367 186.766 12.3787C188.165 12.4663 189.622 11.7777 190.919 12.3754ZM184.27 15.0681C183.797 15.4897 183.797 15.4897 183.485 15.645C183.471 16.4436 183.461 17.2421 183.454 18.0408C183.451 18.3124 183.447 18.584 183.442 18.8557C183.435 19.2463 183.432 19.6368 183.429 20.0274C183.426 20.1487 183.423 20.27 183.42 20.395C183.416 21.0839 183.416 21.0839 183.745 21.6751C184.116 21.9361 184.498 22.1325 184.912 22.3196C185.089 21.9658 185.022 21.8352 184.912 21.4675C185.1 21.4675 185.288 21.4675 185.482 21.4675C185.482 21.5612 185.482 21.6549 185.482 21.7515C185.577 21.7515 185.671 21.7515 185.768 21.7515C185.766 21.6085 185.764 21.4656 185.763 21.3183C185.755 20.3025 185.764 19.2951 185.833 18.2813C185.977 16.6507 185.977 16.6507 185.625 15.077C185.05 14.5562 184.832 14.5645 184.27 15.0681ZM188.336 15.503C187.978 15.8589 188.103 16.7544 188.077 17.2338C188.066 17.3818 188.055 17.5298 188.044 17.6823C187.997 18.5744 188.015 19.0848 188.621 19.7634C188.527 19.9039 188.433 20.0445 188.336 20.1894C188.301 20.5792 188.301 20.5792 188.318 20.9971C188.32 21.1382 188.323 21.2794 188.326 21.4248C188.329 21.5326 188.332 21.6404 188.336 21.7515C188.712 21.8921 189.089 22.0327 189.477 22.1776C189.526 22.0238 189.526 22.0238 189.575 21.8669C189.762 21.4675 189.762 21.4675 190.126 21.1547C190.559 20.6624 190.573 20.3073 190.555 19.6829C190.555 19.5812 190.555 19.4796 190.554 19.3748C190.553 19.1608 190.55 18.9468 190.545 18.7328C190.538 18.4059 190.536 18.0792 190.536 17.7522C190.534 17.5437 190.531 17.3352 190.529 17.1267C190.527 16.9807 190.527 16.9807 190.526 16.8317C190.514 16.3201 190.469 15.9391 190.19 15.503C189.955 15.503 189.72 15.503 189.477 15.503C189.477 15.3155 189.477 15.1281 189.477 14.9349C189.008 14.9349 188.71 15.2416 188.336 15.503Z" fill="white"/>
<path d="M21.8437 20.6952C21.9534 20.6924 22.063 20.6896 22.1759 20.6866C22.9833 20.6873 23.4731 20.8457 24.1264 21.3254C24.2813 21.6194 24.2813 21.6194 24.3226 21.9112C24.3785 22.4307 24.3785 22.4307 24.5544 22.7455C24.5765 23.0145 24.5936 23.2838 24.6079 23.5532C24.6463 24.0863 24.6903 24.5195 24.9289 25C25.1545 25.5104 25.1254 25.7655 24.9824 26.2958C25.2178 26.3896 25.4532 26.4833 25.6957 26.5799C25.6016 26.861 25.5074 27.1422 25.4104 27.4319C25.5517 27.5257 25.6929 27.6194 25.8384 27.716C25.7642 27.8329 25.7642 27.8329 25.6885 27.9523C25.5158 28.3753 25.5724 28.6044 25.669 29.0473C25.7118 29.2524 25.7118 29.2524 25.7554 29.4617C25.7828 29.5886 25.8102 29.7154 25.8384 29.8461C25.8868 30.13 25.9348 30.414 25.9811 30.6982C26.1223 30.6982 26.2636 30.6982 26.4091 30.6982C26.3797 30.543 26.3502 30.3877 26.3199 30.2278C26.2664 29.7041 26.2664 29.7041 26.5517 29.2781C26.6058 29.0012 26.6058 29.0012 26.6231 28.71C26.6585 28.2448 26.7023 28.1301 26.9797 27.716C27.0154 27.3577 27.0394 27.0098 27.0511 26.6509C27.0839 25.6433 27.0839 25.6433 27.4077 25.1597C27.463 24.8296 27.5101 24.498 27.5504 24.1657C27.596 23.9286 27.6428 23.6917 27.6931 23.4556C27.5989 23.4087 27.5048 23.3619 27.4077 23.3136C27.4524 23.2347 27.4971 23.1558 27.5432 23.0745C27.7526 22.615 27.7925 22.1553 27.8564 21.6577C27.9784 21.3254 27.9784 21.3254 28.2671 21.0714C28.8406 20.8391 29.3361 20.8424 29.949 20.855C30.0587 20.8545 30.1684 20.8541 30.2814 20.8536C31.104 20.8612 32.0535 20.8794 32.6953 21.4408C32.8656 21.8362 32.8107 22.0565 32.6864 22.4615C32.451 22.4615 32.2156 22.4615 31.9731 22.4615C31.926 22.6958 31.8789 22.9302 31.8304 23.1716C31.6421 23.1716 31.4538 23.1716 31.2597 23.1716C31.1138 23.9946 31.1075 24.7805 31.1293 25.6146C31.1324 25.7509 31.1354 25.8872 31.1385 26.0276C31.1451 26.314 31.1521 26.6005 31.1594 26.8869C31.1706 27.326 31.1801 27.765 31.1895 28.2041C31.1961 28.483 31.2028 28.7618 31.2096 29.0407C31.2124 29.172 31.2153 29.3034 31.2182 29.4387C31.2215 29.5606 31.2248 29.6824 31.2282 29.808C31.2308 29.9151 31.2335 30.0221 31.2362 30.1324C31.251 30.4441 31.251 30.4441 31.4024 30.8402C31.7597 31.0133 31.7597 31.0133 32.1157 31.1242C32.1157 31.2648 32.1157 31.4054 32.1157 31.5503C31.8333 31.5503 31.5508 31.5503 31.2597 31.5503C31.3068 31.7377 31.3539 31.9252 31.4024 32.1183C31.6378 32.1652 31.8732 32.212 32.1157 32.2603C32.0451 32.4712 32.0451 32.4712 31.9731 32.6864C31.8318 32.6864 31.6906 32.6864 31.5451 32.6864C31.6698 33.0006 31.6698 33.0006 32.0177 33.1568C32.447 33.4251 32.689 33.6896 32.9717 34.1065C32.9717 34.2471 32.9717 34.3877 32.9717 34.5325C32.3321 35.1085 31.571 35.0168 30.7604 35.0029C30.5599 35.0036 30.5599 35.0036 30.3553 35.0043C29.1159 34.9947 29.1159 34.9947 28.5491 34.6745C28.4549 34.572 28.3608 34.4695 28.2637 34.3639C27.9974 34.0642 27.9974 34.0642 27.6128 34.1154C27.2614 34.2198 27.2614 34.2198 27.0711 34.4637C26.7691 34.7358 26.57 34.7432 26.1683 34.7722C26.053 34.7815 25.9377 34.7908 25.8189 34.8005C25.7312 34.8058 25.6435 34.8111 25.5531 34.8165C25.1788 34.173 25.0364 33.5921 24.9289 32.8667C24.8273 32.4994 24.688 32.3716 24.4117 32.1183C24.4117 32.0246 24.4117 31.9309 24.4117 31.8343C24.5059 31.8343 24.6001 31.8343 24.6971 31.8343C24.5419 31.3728 24.5419 31.3728 24.2691 30.9822C24.2279 30.5279 24.205 30.0736 24.1805 29.6181C24.1261 29.1332 24.0278 28.7346 23.8411 28.284C23.5556 28.0823 23.5556 28.0823 23.2704 28C23.341 27.9121 23.4117 27.8242 23.4844 27.7337C23.7258 27.4548 23.7258 27.4548 23.6984 27.1479C23.5572 27.0542 23.4159 26.9605 23.2704 26.8639C23.3646 26.5827 23.4587 26.3015 23.5557 26.0118C23.4616 25.9181 23.3674 25.8244 23.2704 25.7278C23.2526 25.284 23.2526 25.284 23.2704 24.8757C23.1292 24.9226 22.9879 24.9694 22.8424 25.0177C22.8147 25.4378 22.7881 25.8579 22.7622 26.2781C22.7542 26.3976 22.7462 26.5172 22.7379 26.6403C22.731 26.7547 22.7241 26.8692 22.717 26.987C22.7069 27.1454 22.7069 27.1454 22.6966 27.307C22.6804 27.5871 22.6804 27.5871 22.8424 27.858C22.851 28.231 22.8516 28.6011 22.8474 28.9741C22.848 29.2023 22.8488 29.4305 22.8499 29.6586C22.8514 30.0184 22.8513 30.3777 22.8459 30.7374C22.7723 32.0956 22.7723 32.0956 23.238 33.3124C23.5268 33.5263 23.7997 33.6752 24.1264 33.8225C24.2677 33.9631 24.2677 33.9631 24.4117 34.1065C24.386 34.4913 24.2699 34.6735 24.0339 34.9802C23.6984 35.2426 23.6984 35.2426 23.257 35.262C23.0165 35.2304 23.0165 35.2304 22.7711 35.1982C22.1522 35.1066 22.1522 35.1066 21.5417 35.1771C21.1788 35.2656 20.9624 35.1788 20.6132 35.0562C20.5025 35.0187 20.3918 34.9811 20.2778 34.9425C19.9891 34.8165 19.9891 34.8165 19.7037 34.5325C19.624 33.6596 19.624 33.6596 19.8732 33.281C20.1317 33.1124 20.1317 33.1124 20.5062 32.9881C20.6181 32.9354 20.7299 32.8827 20.8451 32.8284C20.9955 32.3135 21.0058 31.8156 21.0062 31.2821C21.0067 31.1172 21.0071 30.9522 21.0076 30.7823C21.0073 30.6053 21.007 30.4284 21.0067 30.2461C21.0068 30.0631 21.007 29.8802 21.0071 29.6917C21.0073 29.3051 21.007 28.9184 21.0063 28.5318C21.0055 28.0379 21.006 27.544 21.0069 27.0502C21.0075 26.577 21.007 26.1039 21.0067 25.6307C21.0071 25.3657 21.0071 25.3657 21.0076 25.0954C21.0071 24.93 21.0067 24.7646 21.0062 24.5942C21.0061 24.4494 21.006 24.3046 21.0059 24.1554C20.987 23.7229 20.9252 23.3127 20.8451 22.8876C20.7127 22.8495 20.5803 22.8114 20.4438 22.7722C19.7779 22.5252 19.7779 22.5252 19.5611 22.1775C19.5343 21.6538 19.5343 21.6538 19.5611 21.1834C20.347 20.7912 20.9694 20.6872 21.8437 20.6952Z" fill="#FEF9F7"/>
<path d="M132.68 8.07726C133.116 8.11751 133.543 8.12487 133.981 8.11831C134.654 9.2251 134.616 10.2942 134.578 11.5532C134.57 11.931 134.564 12.3087 134.558 12.6865C134.553 12.8524 134.549 13.0183 134.544 13.1892C134.54 13.6494 134.54 13.6494 134.621 14.0676C134.713 14.6231 134.715 15.1607 134.713 15.7226C134.713 15.8378 134.714 15.953 134.714 16.0717C134.714 16.3147 134.713 16.5577 134.713 16.8007C134.712 17.1684 134.713 17.5361 134.714 17.9038C134.714 19.0538 134.7 20.1829 134.552 21.3254C134.65 21.3717 134.748 21.418 134.849 21.4658C134.977 21.5278 135.106 21.5899 135.238 21.6538C135.366 21.7148 135.493 21.7757 135.624 21.8385C135.953 22.0215 136.173 22.1701 136.406 22.4615C136.478 22.8698 136.478 22.8698 136.406 23.3136C136.124 23.7089 135.906 23.9684 135.422 24.0941C135.131 24.1301 134.844 24.1492 134.552 24.1656C134.266 24.2113 133.981 24.258 133.696 24.3077C133.507 24.0733 133.319 23.839 133.125 23.5976C132.701 23.6679 132.701 23.6679 132.269 23.7396C132.269 23.6459 132.269 23.5522 132.269 23.4556C132.191 23.4966 132.113 23.5376 132.033 23.5798C131.308 23.9354 130.76 24.0815 129.951 24.0297C129.827 24.0267 129.827 24.0267 129.701 24.0236C129.654 24.0705 129.607 24.1174 129.558 24.1656C128.335 24.3713 127.322 23.9191 126.277 23.3136C126.23 23.2198 126.183 23.1261 126.134 23.0296C125.962 22.9636 125.962 22.9636 125.787 22.8964C125.421 22.7455 125.421 22.7455 125.136 22.3195C125.084 22.1111 125.039 21.9007 125.002 21.6893C124.9 21.1887 124.9 21.1887 124.636 20.7574C123.843 19.704 124.094 18.0198 124.173 16.7899C124.28 16.355 124.28 16.355 124.556 15.9467C124.878 15.4606 124.951 15.1112 125.024 14.5438C125.342 13.6382 126.276 13.2457 127.079 12.8402C127.188 12.7836 127.297 12.7271 127.409 12.6688C128.223 12.2496 128.905 11.9716 129.844 12.0946C130.186 12.2195 130.508 12.3678 130.837 12.5257C131.314 12.7504 131.654 12.8667 132.162 12.6982C132.457 12.5255 132.457 12.5255 132.554 12.0946C132.46 12.0946 132.366 12.0946 132.269 12.0946C132.18 11.7662 132.18 11.7662 132.126 11.3846C132.22 11.244 132.315 11.1034 132.412 10.9585C132.039 10.6025 131.849 10.5333 131.324 10.4793C131.165 10.4968 131.006 10.5144 130.842 10.5325C130.748 10.6731 130.654 10.8137 130.557 10.9585C130.013 10.8853 129.784 10.7873 129.416 10.3905C129.289 10.3319 129.163 10.2733 129.032 10.213C128.923 10.131 128.814 10.049 128.702 9.96446C128.616 9.30419 128.729 8.86162 128.988 8.26032C130.255 8.04652 131.393 7.94756 132.68 8.07726ZM128.417 14.7751C128.264 14.8773 128.111 14.9794 127.953 15.0847C127.384 15.4853 127.384 15.4853 127.142 16.1242C126.99 16.639 126.99 16.639 126.75 16.9408C126.521 17.2022 126.521 17.2022 126.607 17.5621C126.639 17.6793 126.672 17.7964 126.705 17.9171C126.705 18.1046 126.705 18.292 126.705 18.4852C126.846 18.532 126.987 18.5789 127.133 18.6272C127.062 18.7897 127.062 18.7897 126.99 18.9556C126.823 19.3359 126.823 19.3359 126.848 19.7633C126.915 19.8277 126.983 19.8922 127.053 19.9585C127.276 20.1893 127.276 20.1893 127.329 20.5266C127.46 21.0756 127.685 21.2643 128.132 21.6094C128.854 21.9585 129.472 22.1196 130.254 21.8846C130.749 21.6823 131.064 21.4509 131.413 21.0414C131.539 20.9477 131.666 20.8539 131.796 20.7574C132.345 20.2847 132.319 19.6278 132.395 18.9373C132.414 18.5787 132.341 18.2671 132.269 17.9171C132.363 17.7765 132.457 17.6359 132.554 17.4911C132.46 17.3974 132.366 17.3036 132.269 17.2071C132.325 16.859 132.442 16.5483 132.554 16.213C132.46 16.1603 132.366 16.1075 132.269 16.0532C131.984 15.7869 131.984 15.7869 131.948 15.3343C131.96 15.2025 131.971 15.0707 131.984 14.9349C131.842 14.9817 131.701 15.0286 131.556 15.0769C131.556 15.1706 131.556 15.2643 131.556 15.3609C131.367 15.314 131.179 15.2672 130.985 15.2189C130.938 14.9846 130.891 14.7503 130.842 14.5088C130.644 14.5572 130.644 14.5572 130.441 14.6065C129.986 14.6509 129.986 14.6509 129.737 14.4467C129.678 14.3735 129.619 14.3003 129.558 14.2248C129.092 14.2248 128.797 14.5199 128.417 14.7751Z" fill="white"/>
<path d="M78.7956 30.7781C78.9769 30.846 79.1582 30.914 79.3395 30.9822C79.8068 31.0101 80.1976 30.9818 80.6592 30.9023C81.0515 30.8402 81.0515 30.8402 81.3368 30.9822C82.0006 31.0255 82.0006 31.0255 82.6208 30.8402C82.8311 30.8266 83.042 30.8216 83.2528 30.8213C83.4406 30.8211 83.4406 30.8211 83.6323 30.8208C83.7634 30.8213 83.8946 30.8219 84.0297 30.8224C84.2247 30.8216 84.2247 30.8216 84.4237 30.8208C84.6121 30.821 84.6121 30.821 84.8043 30.8213C84.919 30.8215 85.0338 30.8216 85.152 30.8218C85.4687 30.8399 85.7392 30.9013 86.0448 30.9822C86.3892 31.0136 86.7341 31.0398 87.0792 31.0621C87.2594 31.074 87.4396 31.0859 87.6253 31.0981C87.7629 31.1067 87.9004 31.1153 88.0422 31.1242C88.1149 31.3219 88.1859 31.5203 88.2562 31.7189C88.2959 31.8293 88.3356 31.9397 88.3765 32.0534C88.4808 32.4419 88.5332 32.7134 88.4702 33.1124C88.1882 33.3942 88.1882 33.3942 87.8103 33.6449C87.6878 33.7291 87.5654 33.8133 87.4392 33.9001C87.0092 34.1243 86.6705 34.2135 86.1875 34.2485C85.9973 34.1065 85.807 33.9644 85.6168 33.8224C85.0707 33.8345 84.6947 33.9865 84.2331 34.2568C84.0777 34.3478 83.9223 34.4388 83.7622 34.5325C83.779 35.566 83.7968 36.5995 83.8153 37.6329C83.8214 37.9843 83.8274 38.3357 83.8331 38.6871C83.8414 39.1929 83.8504 39.6988 83.8597 40.2046C83.8621 40.361 83.8644 40.5174 83.8669 40.6786C83.8843 41.5945 83.8843 41.5945 83.9879 42.5034C84.0475 42.9112 84.0475 42.9112 83.9048 43.1952C83.8675 43.6314 83.8422 43.9336 84.0564 44.3224C84.4933 44.5609 84.8598 44.4288 85.3315 44.3313C85.3786 44.425 85.4256 44.5188 85.4742 44.6153C85.5742 44.6087 85.6742 44.6022 85.7773 44.5954C86.7584 44.5582 87.3458 44.673 88.1848 45.1834C88.4074 45.405 88.357 45.6221 88.3632 45.9289C88.3549 46.5054 88.2938 46.8669 87.8995 47.3136C87.3004 47.678 86.8588 47.5528 86.1875 47.4556C86.0462 47.5259 86.0462 47.5259 85.9022 47.5976C85.4528 47.8212 85.0982 47.6982 84.6182 47.5976C84.4887 47.5419 84.3592 47.4863 84.2258 47.4289C84.1199 47.3909 84.014 47.3528 83.9048 47.3136C83.7636 47.4073 83.6223 47.501 83.4768 47.5976C82.5733 47.6449 82.5733 47.6449 82.1928 47.4556C81.7118 47.4333 81.279 47.4642 80.8018 47.5354C80.3382 47.5976 80.3382 47.5976 80.0528 47.4556C79.2925 47.4072 79.2925 47.4072 78.6262 47.7396C77.9452 47.6626 77.3526 47.2193 76.7715 46.8875C76.7715 46.2783 76.7715 45.6691 76.7715 45.0414C78.5604 44.4301 78.5604 44.4301 79.1968 44.5621C79.632 44.6607 79.632 44.6607 79.9815 44.4023C80.4466 44.1245 80.6774 44.2239 81.1942 44.3313C81.2219 43.9349 81.2485 43.5385 81.2744 43.142C81.2824 43.0292 81.2904 42.9164 81.2986 42.8002C81.3587 42.1989 81.3587 42.1989 81.1942 41.6331C81.1834 41.3894 81.1818 41.1453 81.1847 40.9014C81.1861 40.7488 81.1875 40.5962 81.189 40.439C81.191 40.2736 81.1931 40.1082 81.1953 39.9378C81.1978 39.5906 81.2002 39.2433 81.2025 38.896C81.2069 38.3462 81.212 37.7965 81.2186 37.2467C81.2246 36.7177 81.228 36.1887 81.2309 35.6597C81.2336 35.4943 81.2362 35.3289 81.239 35.1585C81.2395 35.006 81.24 34.8534 81.2405 34.6961C81.2419 34.5614 81.2432 34.4266 81.2447 34.2878C81.228 34.1811 81.2113 34.0744 81.1942 33.9644C80.8142 33.6418 80.8142 33.6418 80.5076 33.7248C80.3531 33.7731 80.3531 33.7731 80.1955 33.8224C79.2614 34.0292 78.5175 33.8569 77.6275 33.5384C77.0452 33.1483 76.9436 32.958 76.7893 32.2781C76.8258 31.7182 77.0694 31.4699 77.4848 31.1065C77.9583 30.7787 78.2295 30.6244 78.7956 30.7781Z" fill="white"/>
<path d="M98.598 34.3905C98.7336 34.3874 98.8691 34.3843 99.0088 34.381C99.6109 34.3819 100.008 34.3901 100.468 34.8015C100.722 35.1274 100.945 35.4618 101.166 35.8106C101.272 35.9219 101.378 36.0332 101.487 36.1479C102.404 37.5175 102.228 39.3166 102.227 40.8912C102.227 41.2124 102.231 41.5333 102.235 41.8544C102.234 41.9522 102.233 42.05 102.232 42.1507C102.239 42.6311 102.276 42.8716 102.579 43.2535C102.877 43.4787 103.1 43.5839 103.458 43.6834C103.855 43.8228 104.012 43.8978 104.314 44.207C104.501 44.7798 104.518 45.3238 104.305 45.8934C104 46.2377 103.762 46.4341 103.299 46.5082C102.961 46.5226 102.628 46.518 102.29 46.5059C102.174 46.5045 102.058 46.5031 101.939 46.5017C101.447 46.4924 101.066 46.4756 100.595 46.3195C100.085 46.3003 99.6746 46.2942 99.1865 46.4526C98.5348 46.4656 98.2107 46.1444 97.7075 45.7592C97.4567 45.4674 97.4567 45.4674 97.3881 45.1063C97.4972 44.551 97.8312 44.3975 98.2781 44.0872C98.5765 43.9175 98.8282 43.8188 99.1598 43.7366C99.3761 43.6795 99.3761 43.6795 99.5967 43.6212C99.7485 43.1678 99.7578 42.8412 99.7583 42.3648C99.7585 42.1996 99.7587 42.0343 99.7589 41.8641C99.7583 41.6912 99.7578 41.5183 99.7572 41.3402C99.7577 41.1711 99.7583 41.0021 99.7589 40.8279C99.8373 39.1163 99.8373 39.1163 99.347 37.5325C99.2411 37.4329 99.1352 37.3333 99.026 37.2307C98.9172 37.1194 98.8083 37.0081 98.6961 36.8934C98.32 36.6221 98.32 36.6221 97.8401 36.6627C96.834 36.9343 96.0839 37.3886 95.3167 38.0828C95.2108 38.1589 95.1048 38.2351 94.9957 38.3136C94.5841 38.8696 94.5101 39.533 94.4607 40.213C94.4999 40.4512 94.5474 40.6882 94.6034 40.923C94.6399 41.1651 94.6727 41.4077 94.7014 41.6508C94.7167 41.7713 94.732 41.8917 94.7477 42.0158C94.746 42.3431 94.746 42.3431 94.4607 42.7692C94.6463 43.291 94.6463 43.291 94.8887 43.7633C95.2183 43.7164 95.5478 43.6695 95.8874 43.6212C96.3084 44.2043 96.4973 44.7517 96.458 45.4674C96.2797 45.8757 96.2797 45.8757 95.8874 46.1775C95.0229 46.4657 94.3163 46.511 93.4559 46.2302C93.1072 46.1643 92.883 46.2309 92.5436 46.3283C91.8214 46.5243 91.2694 46.3636 90.6087 46.0354C90.3234 45.7514 90.3234 45.7514 90.2866 45.4641C90.3071 45.1031 90.3386 44.813 90.466 44.4733C90.7425 44.2736 91.0145 44.1644 91.3304 44.0367C91.6439 43.9133 91.6439 43.9133 91.8838 43.5502C92.1791 42.5819 92.2448 41.6271 92.0354 40.639C92.0002 40.2598 91.9701 39.8827 91.9462 39.5029C91.9388 39.4037 91.9315 39.3045 91.9239 39.2022C91.889 38.6606 91.897 38.1829 92.0354 37.6567C91.4771 37.2427 90.9898 36.8838 90.3234 36.6627C90.152 35.6393 90.152 35.6393 90.2598 35.2154C90.466 34.9585 90.466 34.9585 90.9007 34.8459C91.0751 34.8274 91.2494 34.8089 91.429 34.7899C91.6019 34.7703 91.7748 34.7507 91.9529 34.7305C92.1213 34.712 92.2898 34.6935 92.4634 34.6745C92.6121 34.6401 92.7609 34.6057 92.9142 34.5702C93.4262 34.5225 93.5866 34.642 93.9881 34.9496C94.453 35.3204 94.453 35.3204 95.0314 35.3846C95.2555 35.2695 95.4793 35.1535 95.6994 35.0309C96.7046 34.475 97.4368 34.27 98.598 34.3905Z" fill="white"/>
<path d="M114.577 34.3906C114.778 34.3831 114.778 34.3831 114.983 34.3756C115.616 34.3712 115.995 34.3986 116.478 34.8282C116.773 35.1909 117.033 35.5607 117.287 35.9527C117.399 36.1021 117.511 36.2514 117.626 36.4053C118.099 37.2193 118.185 38.0393 118.192 38.9632C118.194 39.0708 118.196 39.1784 118.199 39.2892C118.207 39.7452 118.213 40.2013 118.219 40.6574C118.224 40.9921 118.23 41.3268 118.237 41.6615C118.238 41.8155 118.238 41.8155 118.239 41.9726C118.249 42.4924 118.265 42.9044 118.571 43.3373C118.898 43.5329 118.898 43.5329 119.276 43.6835C119.709 43.8894 119.977 44.0256 120.31 44.3758C120.469 44.8987 120.496 45.3822 120.283 45.8935C119.982 46.225 119.743 46.4323 119.292 46.5085C118.966 46.5228 118.647 46.5182 118.322 46.5059C118.207 46.5038 118.092 46.5018 117.974 46.4996C117.399 46.4861 116.832 46.4545 116.262 46.3817C115.721 46.2878 115.721 46.2878 115.219 46.4438C114.523 46.4685 114.216 46.1734 113.681 45.7593C113.435 45.4675 113.435 45.4675 113.367 45.1063C113.475 44.5509 113.81 44.3976 114.257 44.0873C114.555 43.9176 114.807 43.8189 115.138 43.7367C115.355 43.6796 115.355 43.6796 115.575 43.6213C115.835 42.8469 115.744 42.0085 115.745 41.1982C115.746 41.0156 115.748 40.833 115.75 40.6449C115.804 38.827 115.804 38.827 115.085 37.2308C114.549 36.8023 114.549 36.8023 113.908 36.6006C113.244 36.6879 112.836 36.9991 112.294 37.3728C112.179 37.4444 112.064 37.516 111.946 37.5897C111.831 37.6616 111.716 37.7336 111.598 37.8077C111.493 37.8738 111.387 37.9399 111.278 38.008C110.787 38.4049 110.679 38.8942 110.555 39.4941C110.53 39.6125 110.504 39.731 110.478 39.853C110.435 40.2493 110.491 40.5365 110.582 40.9231C110.619 41.1888 110.652 41.4552 110.68 41.7219C110.695 41.8556 110.71 41.9892 110.726 42.1269C110.725 42.4852 110.725 42.4852 110.439 42.9113C110.581 43.2844 110.581 43.2844 110.867 43.6213C111.385 43.6806 111.385 43.6806 111.866 43.6213C112.586 44.8822 112.586 44.8822 112.437 45.6095C111.957 46.1822 111.371 46.3148 110.66 46.4383C110.205 46.4674 109.868 46.3681 109.439 46.2302C109.088 46.1651 108.864 46.2301 108.522 46.3284C107.8 46.5244 107.248 46.3637 106.587 46.0355C106.493 45.9418 106.399 45.8481 106.302 45.7515C106.305 45.4442 106.305 45.4442 106.355 45.0947C106.371 44.9786 106.387 44.8626 106.403 44.743C106.417 44.654 106.431 44.5651 106.445 44.4734C106.534 44.4525 106.623 44.4317 106.715 44.4102C106.832 44.3783 106.949 44.3465 107.069 44.3136C107.243 44.2691 107.243 44.2691 107.42 44.2238C107.765 44.066 107.765 44.066 107.906 43.664C108.016 43.1868 108.077 42.7337 108.112 42.2456C108.13 42.0075 108.13 42.0075 108.149 41.7646C108.18 41.34 108.18 41.34 108.014 40.9231C108.014 40.6793 108.022 40.4354 108.035 40.192C108.04 40.0492 108.045 39.9064 108.05 39.7593C108.062 39.4592 108.076 39.1592 108.095 38.8595C108.139 38.0754 108.139 38.0754 107.802 37.402C107.344 37.0702 106.84 36.8413 106.302 36.6627C106.131 35.6394 106.131 35.6394 106.238 35.2154C106.445 34.9586 106.445 34.9586 106.879 34.846C107.054 34.8275 107.228 34.809 107.408 34.79C107.58 34.7704 107.753 34.7508 107.931 34.7306C108.1 34.7121 108.268 34.6936 108.442 34.6746C108.595 34.6435 108.748 34.6123 108.906 34.5803C109.475 34.511 109.714 34.76 110.154 35.1006C110.543 35.4221 110.543 35.4221 110.915 35.3586C111.35 35.2259 111.703 35.0319 112.098 34.8077C112.978 34.3596 113.608 34.3063 114.577 34.3906Z" fill="white"/>
<path d="M116.406 12.1568C116.596 12.1638 116.596 12.1638 116.791 12.1709C117.338 12.2142 117.718 12.246 118.127 12.6305C118.342 12.917 118.529 13.2096 118.715 13.5148C118.841 13.6645 118.968 13.8128 119.099 13.9586C120.105 15.4286 119.892 17.4101 119.853 19.0977C119.85 19.2648 119.847 19.4319 119.844 19.6041C119.839 19.7543 119.835 19.9045 119.831 20.0593C119.858 20.4978 119.937 20.7953 120.142 21.1834C120.505 21.3707 120.505 21.3707 120.926 21.4763C121.665 21.6862 121.665 21.6862 121.899 22.0177C122.054 22.4993 122.075 22.9605 121.996 23.4556C121.765 23.8728 121.765 23.8728 121.426 24.1657C120.794 24.3105 120.182 24.3268 119.535 24.3254C119.361 24.3258 119.187 24.3262 119.007 24.3265C118.572 24.3077 118.572 24.3077 118.287 24.1657C117.945 24.1776 117.603 24.1929 117.262 24.2101C116.592 24.2261 116.061 24.2241 115.523 23.784C115.184 23.4202 115.021 23.1117 115.006 22.6035C115.697 22.035 116.262 21.6507 117.146 21.4674C117.383 20.7038 117.315 19.8976 117.315 19.1065C117.315 18.817 117.318 18.5276 117.321 18.2381C117.322 17.0604 117.236 16.0554 116.86 14.9349C116.589 14.8496 116.589 14.8496 116.29 14.7929C116.149 14.6992 116.007 14.6054 115.862 14.5089C114.903 14.525 114.347 14.8177 113.579 15.3609C113.475 15.4224 113.371 15.484 113.264 15.5473C112.681 15.916 112.378 16.1957 112.224 16.8787C112.082 17.994 112.063 18.9812 112.438 20.0473C112.344 20.1879 112.249 20.3285 112.152 20.4734C112.189 20.7615 112.189 20.7615 112.295 21.0414C112.342 21.182 112.389 21.3226 112.438 21.4674C112.814 21.4674 113.191 21.4674 113.579 21.4674C113.917 22.1542 114.126 22.6739 114.007 23.4556C113.577 23.9205 113.207 24.1062 112.58 24.1657C112.048 24.1853 111.565 24.1632 111.038 24.0858C110.599 23.9824 110.599 23.9824 110.298 24.1657C109.444 24.2557 108.754 24.1842 108.015 23.7396C107.815 23.3066 107.868 23.0546 107.944 22.5858C108.236 22.0284 108.583 21.9818 109.156 21.7515C110.069 20.5616 109.733 18.7075 109.621 17.2914C109.535 16.078 109.535 16.078 109.727 15.503C109.165 15.0861 108.68 14.7425 108.015 14.5089C107.872 14.3669 107.872 14.3669 107.854 14.0473C107.854 13.9185 107.854 13.7896 107.855 13.6568C107.854 13.5279 107.854 13.399 107.854 13.2663C107.872 12.9467 107.872 12.9467 108.015 12.8047C108.383 12.724 108.75 12.6507 109.121 12.5828C109.223 12.5632 109.325 12.5435 109.431 12.5232C110.822 12.2647 110.822 12.2647 111.337 12.5751C111.548 12.7403 111.759 12.906 111.97 13.0721C112.291 13.2727 112.291 13.2727 112.642 13.137C112.763 13.0742 112.884 13.0114 113.008 12.9467C113.14 12.888 113.271 12.8292 113.406 12.7687C113.677 12.6444 113.947 12.5202 114.218 12.3959C114.992 12.0535 115.577 12.0949 116.406 12.1568Z" fill="white"/>
<path d="M212.304 34.3905C212.516 34.3955 212.516 34.3955 212.731 34.4005C213.771 34.4417 213.771 34.4417 214.195 34.8166C214.277 34.9572 214.359 35.0977 214.444 35.2426C214.613 35.4476 214.782 35.6517 214.952 35.855C216 37.1109 215.942 38.4738 215.96 40.0177C215.965 40.3356 215.971 40.6535 215.978 40.9714C215.983 41.259 215.987 41.5466 215.991 41.8343C216.012 42.3049 216.042 42.738 216.156 43.1953C216.537 43.4321 216.537 43.4321 217.003 43.568C217.824 43.8426 217.824 43.8426 218.062 44.1799C218.251 44.7848 218.235 45.2943 217.966 45.8669C217.726 46.1775 217.726 46.1775 217.298 46.4615C216.882 46.4859 216.482 46.4948 216.067 46.4882C215.951 46.4873 215.835 46.4865 215.715 46.4857C215.135 46.4787 214.566 46.4574 213.989 46.3817C213.448 46.2862 213.448 46.2862 212.946 46.4527C212.223 46.4655 211.92 46.1109 211.395 45.6483C211.163 45.3254 211.163 45.3254 211.166 44.9565C211.405 44.3724 211.884 44.1505 212.447 43.9053C212.946 43.8609 212.946 43.8609 213.303 43.9053C213.5 43.0723 213.472 42.2433 213.472 41.3917C213.472 41.1034 213.475 40.8152 213.478 40.527C213.53 38.7731 213.53 38.7731 212.812 37.2396C212.28 36.8028 212.28 36.8028 211.635 36.6006C210.968 36.6884 210.567 36.9975 210.022 37.3728C209.896 37.4449 209.771 37.517 209.641 37.5913C208.92 38.021 208.92 38.021 208.441 38.6864C208.357 39.0595 208.323 39.4048 208.31 39.787C208.303 39.9305 208.297 40.074 208.291 40.2219C208.279 40.8421 208.29 41.4462 208.39 42.0592C208.45 42.4708 208.414 42.6642 208.31 43.0533C208.365 43.4341 208.365 43.4341 208.452 43.7633C208.829 43.7164 209.206 43.6696 209.594 43.6213C210.119 44.2342 210.2 44.8171 210.164 45.6095C209.986 45.9645 209.986 45.9645 209.594 46.1775C208.719 46.4425 208.028 46.5137 207.162 46.2297C206.813 46.1644 206.596 46.2351 206.259 46.3373C205.468 46.5552 204.874 46.2634 204.172 45.8935C204.125 45.8466 204.078 45.7998 204.03 45.7515C204.043 45.3346 204.055 45.0088 204.172 44.6154C204.548 44.3104 204.855 44.1994 205.314 44.0473C205.703 43.4287 205.808 42.9062 205.849 42.1834C205.86 42.0132 205.871 41.8429 205.882 41.6675C205.904 41.2347 205.904 41.2347 205.812 40.9373C205.731 40.5943 205.737 40.303 205.753 39.9512C205.756 39.821 205.76 39.6909 205.764 39.5568C205.773 39.2841 205.784 39.0115 205.797 38.7391C205.833 37.9411 205.833 37.9411 205.412 37.2946C205.002 37.0749 204.592 36.8621 204.172 36.6627C204.03 36.5207 204.03 36.5207 204.016 36.2273C204.017 36.1103 204.019 35.9933 204.021 35.8728C204.022 35.7554 204.023 35.6381 204.025 35.5172C204.026 35.4266 204.028 35.336 204.03 35.2426C204.507 34.9772 204.979 34.8452 205.51 34.7189C205.667 34.6803 205.824 34.6417 205.986 34.6019C206.917 34.4643 207.445 34.7186 208.177 35.2481C208.442 35.409 208.442 35.409 208.723 35.3619C209.107 35.209 209.455 35.0101 209.816 34.8077C210.697 34.3632 211.336 34.2999 212.304 34.3905Z" fill="white"/>
<path d="M156.102 34.071C156.332 34.0693 156.332 34.0693 156.567 34.0676C156.715 34.068 156.864 34.0684 157.016 34.0687C157.151 34.0691 157.285 34.0694 157.423 34.0697C158.51 34.1744 159.819 34.8981 160.569 35.6775C161.169 36.469 161.691 37.4986 161.632 38.5044C161.578 38.766 161.517 39.0266 161.451 39.2855C161.35 39.741 161.401 40.0992 161.474 40.5547C161.547 41.2205 161.501 41.8944 161.478 42.5628C161.524 43.1886 161.71 43.5407 162.161 43.973C162.233 44.0268 162.305 44.0806 162.379 44.1361C162.798 44.4733 162.798 44.4733 163.084 44.8994C163.084 45.3165 163.084 45.3165 162.941 45.7514C162.549 46.0888 162.267 46.2983 161.746 46.3589C161.286 46.3105 161.015 46.1606 160.623 45.9201C160.498 45.8459 160.374 45.7718 160.246 45.6954C159.945 45.4674 159.945 45.4674 159.802 45.0414C159.708 45.1012 159.613 45.1611 159.515 45.2228C159.389 45.3006 159.263 45.3784 159.134 45.4585C159.009 45.536 158.885 45.6134 158.757 45.6932C157.355 46.429 154.907 46.3994 153.414 45.9679C152.613 45.6973 152.157 45.4567 151.67 44.7574C151.59 44.6501 151.51 44.5428 151.427 44.4323C150.928 43.6813 150.679 43.0817 150.729 42.1734C150.886 41.4384 151.275 40.8439 151.67 40.213C151.762 40.0397 151.852 39.8654 151.938 39.6893C151.991 39.5809 152.044 39.4726 152.098 39.3609C152.431 39.3609 152.764 39.3609 153.097 39.3609C152.882 39.1464 152.646 39.1669 152.348 39.1213C151.824 39.0076 151.664 38.9297 151.242 38.5621C150.883 37.9588 150.814 37.6478 150.814 36.9467C151.101 36.0335 151.88 35.277 152.682 34.7699C152.96 34.6274 153.233 34.5022 153.525 34.3905C153.642 34.3396 153.759 34.2887 153.88 34.2363C154.62 34.0445 155.341 34.0655 156.102 34.071ZM156.253 36.3254C156.153 36.3898 156.053 36.4543 155.95 36.5207C155.603 36.4053 155.603 36.4053 155.237 36.2366C154.731 36.1747 154.731 36.1747 154.299 36.4053C154.036 36.7383 153.999 37.0003 153.935 37.4171C153.913 37.5551 153.891 37.6932 153.868 37.8354C153.84 38.0282 153.84 38.0282 153.81 38.2248C153.781 38.3976 153.751 38.5704 153.721 38.7485C153.703 38.8569 153.686 38.9652 153.668 39.0769C154.055 39.2003 154.35 39.2189 154.764 39.2189C154.92 39.2189 155.076 39.2189 155.237 39.2189C155.284 39.2658 155.331 39.3126 155.38 39.3609C155.955 39.3982 156.173 39.4027 156.664 39.0769C156.956 39.0331 156.956 39.0331 157.279 39.0148C157.901 38.9592 158.488 38.8233 158.946 38.3668C159.03 37.965 159.03 37.965 158.946 37.5148C158.659 37.2221 158.426 37.027 158.09 36.8047C157.993 36.7381 157.895 36.6714 157.794 36.6028C157.045 36.0452 157.045 36.0452 156.253 36.3254ZM157.52 41.065C156.951 41.0929 156.473 41.0832 155.915 40.9763C155.46 40.9146 155.344 40.9994 154.952 41.2071C154.822 41.1924 154.693 41.1778 154.559 41.1627C153.93 41.2229 153.653 41.5092 153.188 41.9143C152.911 42.2541 152.84 42.4768 152.812 42.9112C153.283 43.5909 153.859 43.7735 154.623 43.9929C154.973 44.077 154.973 44.077 155.38 43.9053C155.591 43.9133 155.802 43.9256 156.013 43.9408C157.001 43.9538 157.996 43.5954 158.781 42.9939C158.993 42.7061 158.983 42.5525 158.955 42.2011C158.919 41.708 158.933 41.6523 159.232 41.2071C158.913 40.9247 158.725 40.7887 158.295 40.7366C157.911 40.7596 157.911 40.7596 157.52 41.065Z" fill="white"/>
<path d="M149.877 12.3255C150.064 12.4883 150.24 12.663 150.413 12.8403C150.728 13.1426 150.957 13.1834 151.385 13.2308C151.546 13.8124 151.565 14.3792 151.572 14.9793C151.579 15.1357 151.579 15.1357 151.585 15.2952C151.594 16.0944 151.407 16.5453 150.957 17.2071C150.91 17.254 150.863 17.3009 150.814 17.3491C150.635 17.3404 150.455 17.3316 150.271 17.3225C149.961 17.3087 149.961 17.3087 149.673 17.3491C149.48 17.5356 149.29 17.7248 149.102 17.9172C148.656 17.9081 148.367 17.843 147.979 17.6243C147.758 17.2462 147.813 16.9125 147.832 16.4865C147.813 16.1064 147.634 15.9276 147.39 15.645C147.39 15.4575 147.39 15.2701 147.39 15.0769C147.579 15.0301 147.767 14.9832 147.961 14.9349C147.703 14.6101 147.589 14.5157 147.168 14.4645C146.794 14.4763 146.794 14.4763 146.534 14.7929C146.378 14.7754 146.223 14.7578 146.062 14.7397C145.545 14.7333 145.545 14.7333 145.332 15.0148C145.209 15.215 145.093 15.4196 144.984 15.6272C144.822 15.929 144.822 15.929 144.493 16.3018C144.165 16.9539 144.219 17.4951 144.241 18.2151C144.252 18.8013 144.224 19.3745 144.18 19.9586C144.167 20.1384 144.154 20.3181 144.14 20.5034C144.13 20.6341 144.12 20.7648 144.109 20.8994C144.207 20.9236 144.306 20.9478 144.407 20.9727C145.09 21.148 145.723 21.3316 146.356 21.645C146.958 21.93 147.321 21.9143 147.961 21.7515C148.137 22.3829 148.137 22.3829 147.979 22.7545C147.899 22.8907 147.899 22.8907 147.818 23.0296C147.799 23.1664 147.799 23.1664 147.779 23.3059C147.63 23.7271 147.402 23.8023 147.007 23.9971C146.398 24.2788 146.05 24.3692 145.393 24.1657C144.815 24.0507 144.466 24.0033 143.895 24.1657C143.322 24.3287 142.982 24.2545 142.397 24.1657C142.025 24.1923 141.659 24.2353 141.289 24.2855C140.97 24.3077 140.97 24.3077 140.542 24.1657C140.137 24.1669 139.734 24.1841 139.329 24.2023C139.212 24.1902 139.094 24.1782 138.973 24.1657C138.509 23.473 138.529 22.8558 138.545 22.0355C139.474 21.5045 139.839 21.3063 140.912 21.473C141.255 21.4952 141.255 21.4952 141.512 21.3205C141.773 20.8963 141.735 20.5304 141.728 20.0385C141.728 19.7724 141.728 19.7724 141.727 19.501C141.731 19.0396 141.731 19.0396 141.398 18.7693C141.397 18.3576 141.397 18.3576 141.443 17.8639C141.464 17.6206 141.464 17.6206 141.486 17.3724C141.529 17.0193 141.585 16.6958 141.684 16.3551C141.543 16.3082 141.401 16.2613 141.256 16.213C141.346 15.7959 141.487 15.455 141.684 15.0769C140.603 14.7319 140.603 14.7319 139.481 14.6687C138.973 14.6509 138.973 14.6509 138.625 14.358C138.359 13.8587 138.26 13.5138 138.26 12.9468C138.528 12.4464 138.726 12.2762 139.258 12.0742C139.946 11.8944 140.623 11.9347 141.327 11.9704C141.457 11.9737 141.587 11.977 141.721 11.9804C142.587 12.0202 143.099 12.1925 143.824 12.6627C144.218 12.6512 144.382 12.5291 144.71 12.3099C146.069 11.5747 148.594 11.3853 149.877 12.3255Z" fill="white"/>
<path d="M159.517 11.5266C159.686 11.559 159.854 11.5914 160.028 11.6248C161.64 12.0055 162.953 12.6637 163.91 14.0751C164.504 15.0804 164.797 16.0498 164.938 17.2071C164.952 17.3056 164.966 17.4041 164.98 17.5055C165.036 18.2777 164.828 18.9831 164.617 19.7189C164.588 19.8219 164.559 19.9249 164.529 20.031C164.328 20.6887 164.056 21.1856 163.654 21.7515C163.518 22.0196 163.385 22.2888 163.253 22.5592C162.974 23.0687 162.837 23.288 162.344 23.6154C161.762 23.7483 161.204 23.8098 160.608 23.8378C160.202 23.8849 159.895 24.0143 159.517 24.1657C158.205 24.325 156.87 23.584 155.808 22.8876C154.73 21.9974 153.954 20.8196 153.735 19.4275C153.699 18.91 153.69 18.4004 153.694 17.8816C153.695 17.7002 153.696 17.5188 153.697 17.3319C153.738 15.845 154.031 14.8339 154.952 13.6568C155.035 13.5341 155.118 13.4115 155.204 13.2851C155.63 12.8323 156.094 12.6182 156.655 12.3609C156.855 12.2661 157.056 12.1711 157.256 12.0758C157.352 12.0315 157.447 11.9871 157.545 11.9414C157.832 11.8049 157.832 11.8049 158.171 11.5543C158.667 11.3119 158.984 11.4121 159.517 11.5266ZM157.163 14.9171C156.877 15.3209 156.797 15.7391 156.664 16.213C156.564 16.3243 156.464 16.4356 156.361 16.5503C155.972 17.0915 155.999 17.5559 156.093 18.2012C156.252 18.7265 156.5 19.1642 156.806 19.6213C156.851 19.7853 156.895 19.9493 156.94 20.1183C157.12 20.7074 157.289 20.9091 157.817 21.2123C158.488 21.525 158.488 21.525 159.214 21.5917C159.551 21.4651 159.551 21.4651 159.945 21.1834C160.059 21.1616 160.174 21.1398 160.292 21.1174C160.977 20.9754 161.399 20.6092 161.8 20.0473C162.191 18.8928 162.421 17.6559 161.942 16.497C161.893 16.3742 161.844 16.2514 161.793 16.1248C161.447 15.3541 161.149 14.9026 160.373 14.5089C160.275 14.4565 160.176 14.4041 160.075 14.3502C158.92 13.7472 158.193 14.1479 157.163 14.9171Z" fill="white"/>
<path d="M171.644 11.3846C173.699 11.6454 175.445 12.2207 176.799 13.8382C177.905 15.447 178.214 17.188 177.861 19.0929C177.617 20.1963 177.31 21.2276 176.541 22.0871C176.335 22.3401 176.255 22.5528 176.155 22.861C175.905 23.3491 175.854 23.3942 175.371 23.5799C175.176 23.6377 174.98 23.6915 174.782 23.7397C174.665 23.769 174.547 23.7983 174.426 23.8284C174.024 23.8884 173.621 23.941 173.217 23.986C172.894 24.0238 172.894 24.0238 172.446 24.1302C171.067 24.2249 169.911 23.4644 168.79 22.7456C168.556 22.5962 168.556 22.5962 168.318 22.4438C167.102 21.1498 166.757 19.7701 166.793 18.0592C166.79 17.873 166.788 17.6869 166.785 17.495C166.791 15.7317 167.295 14.2252 168.576 12.9468C169.3 12.3872 170.185 12.0644 171.028 11.723C171.472 11.5739 171.472 11.5739 171.644 11.3846ZM171.207 14.3136C170.984 14.4218 170.984 14.4218 170.756 14.5322C170.258 14.8598 169.997 15.2035 169.869 15.787C169.789 16.071 169.789 16.071 169.503 16.3867C169.011 17.0676 169.115 17.8213 169.218 18.6272C169.462 19.0925 169.462 19.0925 169.789 19.4793C169.84 19.6916 169.887 19.9047 169.932 20.1184C170.075 20.5943 170.191 20.7388 170.604 21.0337C171.381 21.474 171.381 21.474 172.242 21.5773C172.54 21.4598 172.54 21.4598 172.928 21.1835C173.057 21.1717 173.187 21.16 173.32 21.148C173.983 20.9956 174.379 20.7388 174.782 20.1894C175.361 18.7293 175.346 17.326 174.729 15.8935C174.191 14.8941 173.389 14.4018 172.363 13.9636C171.909 13.9281 171.609 14.1121 171.207 14.3136Z" fill="white"/>
<path d="M196.041 33.5385C196.28 33.5773 196.518 33.6271 196.754 33.6805C196.924 33.7129 197.093 33.7453 197.268 33.7787C198.915 34.1206 200.139 34.6964 201.168 36.0858C201.888 37.2121 202.262 38.1649 202.318 39.5029C202.334 39.646 202.334 39.646 202.351 39.792C202.446 41.0937 201.983 42.8079 201.168 43.8343C201.096 43.9152 201.023 43.9961 200.948 44.0795C200.712 44.378 200.604 44.668 200.473 45.0237C200.259 45.5387 200.234 45.5852 199.688 45.8225C199.52 45.8459 199.352 45.8693 199.18 45.8935C199.065 45.9198 198.95 45.9462 198.832 45.9734C198.511 46.0279 198.192 46.0689 197.869 46.1065C197.354 46.1437 197.354 46.1437 197.04 46.3195C195.467 46.4935 194.18 45.6658 192.956 44.7663C192.376 44.2651 191.996 43.7201 191.663 43.0355C191.603 42.915 191.544 42.7946 191.483 42.6705C191.114 41.8651 191.164 41.1195 191.164 40.2485C191.162 40.0962 191.16 39.9439 191.158 39.787C191.156 38.5741 191.359 37.6643 191.93 36.5828C192.009 36.4303 192.087 36.2778 192.168 36.1207C192.825 35.1501 193.68 34.6647 194.739 34.2041C195.438 33.9403 195.438 33.9403 196.041 33.5385ZM195.559 36.4763C195.42 36.5472 195.281 36.618 195.137 36.691C194.709 36.9789 194.562 37.2028 194.329 37.6568C194.252 37.7862 194.174 37.9156 194.095 38.049C193.633 38.8839 193.347 39.5069 193.517 40.4626C193.67 40.9552 193.912 41.3373 194.186 41.7751C194.23 41.9479 194.275 42.1208 194.32 42.2988C194.508 42.8826 194.655 43.0295 195.185 43.3373C195.827 43.6623 196.34 43.8289 197.055 43.6562C197.498 43.4814 197.907 43.2842 198.324 43.0532C198.419 43.0014 198.514 42.9496 198.612 42.8963C199.109 42.5621 199.247 42.2082 199.367 41.6509C199.402 41.4086 199.435 41.166 199.465 40.9231C199.5 40.7561 199.536 40.5892 199.572 40.4172C199.642 39.4535 199.358 38.4998 198.894 37.6568C198.237 36.9134 197.37 36.4832 196.469 36.0947C196.155 36.0947 195.828 36.3372 195.559 36.4763Z" fill="white"/>
<path d="M128.132 33.6805C128.297 33.7146 128.463 33.7486 128.633 33.7837C130.463 34.2219 131.861 35.0403 132.875 36.6633C133.676 38.1572 133.844 40.0281 133.413 41.6653C133.144 42.5446 132.803 43.2936 132.269 44.0474C132.034 44.4163 131.854 44.7069 131.743 45.1302C131.482 45.5998 131.167 45.6568 130.668 45.8114C130.414 45.8726 130.414 45.8726 130.272 46.0355C130.007 46.0311 130.007 46.0311 129.737 46.0267C129.35 46.0205 129.138 46.0323 128.774 46.1775C127.749 46.5857 126.854 46.2283 125.884 45.8275C124.429 45.1424 123.375 44.1651 122.685 42.696C122.461 42.0222 122.447 41.3448 122.425 40.6391C122.422 40.5382 122.418 40.4373 122.415 40.3333C122.375 38.424 122.741 36.8865 123.951 35.3636C124.503 34.8398 125.205 34.5645 125.9 34.273C126.231 34.1267 126.517 33.9648 126.821 33.7693C127.373 33.4891 127.538 33.5528 128.132 33.6805ZM125.992 36.9468C125.271 37.8345 124.782 38.9322 124.708 40.071C124.761 40.4202 124.761 40.4202 124.886 40.7278C124.926 40.836 124.966 40.9442 125.008 41.0557C125.163 41.4113 125.358 41.7305 125.564 42.0592C125.598 42.1965 125.632 42.3338 125.667 42.4753C125.903 43.0399 126.138 43.1424 126.687 43.3994C126.912 43.509 126.912 43.509 127.141 43.6208C127.582 43.7704 127.712 43.7882 128.132 43.6213C128.241 43.5856 128.351 43.5499 128.464 43.5132C129.265 43.2156 130.047 42.9153 130.557 42.2012C130.739 41.684 130.8 41.1839 130.842 40.6391C130.862 40.4625 130.862 40.4625 130.882 40.2824C130.952 39.2063 130.616 38.1228 129.936 37.2741C128.564 36.0608 127.497 35.8432 125.992 36.9468Z" fill="white"/>
<path d="M139.394 33.9362C139.846 33.9763 139.846 33.9763 140.364 33.9201C141.075 33.9882 141.553 34.3932 142.111 34.8165C142.047 35.5077 141.877 35.8734 141.398 36.3787C141.257 36.449 141.257 36.449 141.113 36.5207C140.638 37.6761 140.917 38.6377 141.333 39.7465C141.513 40.1509 141.703 40.4338 141.969 40.781C142.067 41.3136 142.067 41.3136 142.111 41.7751C142.252 41.822 142.394 41.8688 142.539 41.9171C142.598 41.8007 142.656 41.6843 142.716 41.5643C143.395 40.213 143.395 40.213 143.561 39.9051C143.745 39.504 143.768 39.0859 143.823 38.6509C143.87 38.5103 143.917 38.3697 143.966 38.2248C143.91 37.9205 143.91 37.9205 143.823 37.6568C144.059 37.563 144.294 37.4693 144.537 37.3727C144.537 37.279 144.537 37.1853 144.537 37.0887C144.431 37.0506 144.325 37.0126 144.216 36.9733C143.839 36.8114 143.559 36.6494 143.253 36.3787C143.253 36.2849 143.253 36.1912 143.253 36.0946C143.017 36.0946 142.782 36.0946 142.539 36.0946C142.423 35.8639 142.423 35.8639 142.397 35.5266C142.808 34.8574 143.221 34.5272 143.979 34.3145C145.51 34.0708 147.169 34.1905 148.674 34.5325C148.817 34.6745 148.817 34.6745 148.831 35.0612C148.829 35.2177 148.827 35.3742 148.826 35.5355C148.824 35.6924 148.823 35.8492 148.822 36.0109C148.82 36.1322 148.818 36.2536 148.817 36.3787C148.591 36.3962 148.591 36.3962 148.362 36.4142C147.752 36.5336 147.529 36.6432 147.105 37.0887C146.664 37.7612 146.471 38.4349 146.319 39.2156C146.225 39.5995 146.034 39.8818 145.821 40.213C145.705 40.5008 145.6 40.7908 145.499 41.0839C145.393 41.3491 145.393 41.3491 145.107 41.7751C145.045 42.0684 144.984 42.3619 144.93 42.6568C144.733 43.7246 144.542 44.5437 143.764 45.3504C143.5 45.6528 143.39 45.9455 143.253 46.3195C143.11 46.4615 143.11 46.4615 142.814 46.4643C141.879 46.3905 141.259 46.2222 140.603 45.5074C140.34 45.09 140.28 44.7178 140.194 44.2337C140 43.2594 139.728 42.4241 139.188 41.5871C138.67 40.6722 138.405 39.5441 138.331 38.5C138.252 37.8833 138.116 37.6688 137.689 37.2307C137.594 37.0901 137.5 36.9496 137.403 36.8047C137.309 36.8398 137.215 36.875 137.118 36.9112C136.502 36.9623 136.057 36.7133 135.549 36.3787C135.383 36.0484 135.382 35.8408 135.379 35.4733C135.377 35.3639 135.375 35.2544 135.373 35.1416C135.41 34.7733 135.485 34.5562 135.691 34.2485C136.798 33.5554 138.166 33.8278 139.394 33.9362Z" fill="white"/>
<path d="M170.359 30.8403C170.73 31.2097 170.907 31.4809 171.072 31.9764C171.071 32.509 171.054 33.0401 171.036 33.5724C171.075 34.1398 171.212 34.4735 171.5 34.9586C171.614 34.9328 171.728 34.907 171.846 34.8804C172.477 34.8015 173.047 34.8578 173.676 34.932C173.85 34.9497 173.85 34.9497 174.028 34.9678C174.889 35.0649 174.889 35.0649 175.21 35.3847C175.238 35.7541 175.238 35.7541 175.228 36.1835C175.225 36.3259 175.222 36.4683 175.22 36.6151C175.216 36.7245 175.213 36.834 175.21 36.9468C173.865 37.7799 173.865 37.7799 173.07 37.6569C172.867 37.5734 172.867 37.5734 172.66 37.4882C172.012 37.3207 171.675 37.53 171.072 37.7989C171.099 37.9746 171.125 38.1503 171.153 38.3314C171.2 38.6475 171.23 38.8791 171.147 39.1892C170.991 39.8456 171.04 40.5359 171.037 41.2072C171.034 41.3624 171.031 41.5176 171.028 41.6776C171.027 41.8269 171.026 41.9763 171.026 42.1302C171.024 42.2664 171.023 42.4026 171.022 42.543C171.081 42.9743 171.225 43.1492 171.5 43.4793C171.545 43.6258 171.589 43.7722 171.634 43.9231C171.748 44.3377 171.748 44.3377 172.044 44.5356C172.465 44.6433 172.668 44.6479 173.07 44.4734C173.217 44.1442 173.36 43.8128 173.498 43.4793C173.792 43.3906 173.792 43.3906 174.068 43.3373C174.135 43.1704 174.135 43.1704 174.202 43.0001C174.354 42.6273 174.354 42.6273 174.666 42.361C175.207 42.1455 175.511 42.1695 176.066 42.3432C176.462 42.8649 176.582 43.382 176.551 44.0374C176.334 45.15 175.371 45.9615 174.496 46.6036C173.607 47.1389 172.817 47.3474 171.786 47.1045C171.01 46.8528 170.41 46.4111 169.788 45.8935C169.656 45.7881 169.524 45.6827 169.387 45.574C168.312 44.2289 168.488 42.1122 168.512 40.4771C168.513 40.3573 168.515 40.2375 168.516 40.114C168.52 39.8846 168.526 39.6552 168.535 39.4259C168.55 38.6784 168.416 38.1834 168.076 37.5148C167.592 37.4723 167.388 37.5002 166.962 37.7545C166.469 37.9566 166.395 37.9553 165.919 37.79C165.448 37.5772 165.088 37.3839 164.795 36.9468C164.718 36.4124 164.706 36.0986 164.991 35.6332C166.025 34.9473 167.153 34.8969 168.362 34.9586C168.354 34.6838 168.354 34.6838 168.347 34.4033C168.343 34.1594 168.339 33.9156 168.335 33.6717C168.331 33.5513 168.328 33.4309 168.324 33.3069C168.315 32.513 168.407 31.9672 168.79 31.2663C169.293 30.8469 169.71 30.7303 170.359 30.8403Z" fill="white"/>
<path d="M183.188 30.0292C183.95 30.2881 184.726 30.5995 185.228 31.2602C185.494 31.9472 185.385 32.7006 185.198 33.3964C184.778 33.7692 184.778 33.7692 184.342 33.9645C184.247 34.1051 184.153 34.2457 184.056 34.3905C184.106 34.4573 184.156 34.5242 184.207 34.593C184.272 34.6814 184.337 34.7698 184.404 34.8609C184.468 34.9483 184.533 35.0356 184.6 35.1256C185.047 35.8068 184.97 36.6231 185.001 37.4083C185.008 37.5656 185.015 37.723 185.022 37.8851C185.066 39.1071 185.034 40.3148 184.933 41.5334C184.872 42.4156 184.997 43.0891 185.34 43.9053C185.433 43.9031 185.526 43.9009 185.622 43.8986C186.042 43.8897 186.462 43.8842 186.883 43.8787C187.029 43.8751 187.175 43.8716 187.326 43.8679C187.466 43.8665 187.606 43.8651 187.75 43.8637C187.88 43.8615 188.009 43.8593 188.142 43.857C188.546 43.915 188.661 44.0147 188.907 44.3314C189.123 44.7286 189.191 45.0159 189.219 45.4675C188.986 46.0522 188.655 46.2105 188.101 46.4843C187.651 46.6444 187.361 46.6077 186.91 46.4615C186.439 46.3125 186.078 46.3294 185.59 46.3905C185.098 46.4426 184.661 46.4676 184.172 46.3905C183.63 46.2928 183.63 46.2928 183.102 46.4083C182.552 46.4964 182.123 46.3887 181.586 46.2485C180.797 46.0438 180.182 46.0313 179.383 46.1731C179.063 46.1775 179.063 46.1775 178.803 46.0189C178.565 45.6404 178.617 45.3909 178.671 44.9527C178.686 44.8132 178.701 44.6737 178.717 44.53C178.778 44.1893 178.778 44.1893 178.92 44.0473C180.057 43.9072 181.2 43.8848 182.344 43.9053C182.391 43.671 182.438 43.4367 182.487 43.1953C182.581 43.1953 182.675 43.1953 182.772 43.1953C182.725 43.1063 182.678 43.0173 182.63 42.9257C182.432 42.3159 182.463 41.7544 182.478 41.1183C182.503 39.231 182.503 39.231 182.202 37.3728C181.763 36.9362 181.235 36.8859 180.632 36.8047C180.183 36.8378 180.183 36.8378 179.776 36.9467C179.313 37.0444 179.313 37.0444 178.92 37.0888C178.476 36.6467 178.505 36.133 178.492 35.5266C178.596 34.9471 178.746 34.8392 179.232 34.4882C179.93 34.1314 180.544 34.2056 181.301 34.3462C181.771 34.4403 181.771 34.4403 182.088 34.1803C182.173 34.1091 182.257 34.0379 182.344 33.9645C182.258 33.9039 182.173 33.8433 182.084 33.7809C181.72 33.4826 181.458 33.2254 181.203 32.8284C181.119 31.9383 181.335 31.0885 181.863 30.3609C182.276 29.9587 182.61 29.8949 183.188 30.0292Z" fill="white"/>
<path d="M99.1697 7.83435C100.266 7.83891 101.064 8.0772 101.88 8.82843C102.191 9.2319 102.306 9.44903 102.318 9.96064C102.121 11.1632 102.121 11.1632 101.586 11.5977C101.448 11.668 101.31 11.7383 101.167 11.8107C100.979 12.0752 100.979 12.0752 101.024 12.3787C101.209 12.6197 101.4 12.8559 101.595 13.0888C101.88 13.7126 101.898 14.2406 101.88 14.9111C101.871 15.245 101.871 15.245 101.961 15.6716C102.023 16.071 102.023 16.071 101.957 16.4399C101.861 17.0431 101.859 17.6273 101.863 18.2367C101.863 18.3564 101.863 18.476 101.864 18.5993C101.835 20.1578 101.835 20.1578 102.308 21.6095C102.733 21.6026 102.733 21.6026 103.158 21.5956C103.45 21.6095 103.45 21.6095 103.878 21.7515C104.172 21.7613 104.466 21.7635 104.76 21.7604C104.915 21.7591 105.071 21.7578 105.23 21.7565C105.349 21.7549 105.467 21.7532 105.59 21.7515C105.964 22.388 106.166 22.8607 106.018 23.5977C105.546 24.0294 104.948 24.3741 104.306 24.4497C104.196 24.4045 104.086 24.3593 103.973 24.3127C103.49 24.1263 103.15 24.1715 102.638 24.2278C101.765 24.3214 101.765 24.3214 101.452 24.1657C100.945 24.1459 100.497 24.1565 99.9989 24.2633C99.4539 24.3078 99.1528 24.2418 98.6347 24.0947C97.877 23.8834 97.2853 23.8783 96.5125 24.0054C96.1221 24.0265 95.9322 23.9407 95.603 23.7397C95.5595 22.462 95.5595 22.462 95.8884 21.8935C96.3673 21.7346 96.6966 21.7564 97.1991 21.7781C98.0061 21.7844 98.68 21.7187 99.3124 21.1835C99.4853 20.8913 99.4853 20.8913 99.5977 20.6154C99.5035 20.4748 99.4094 20.3342 99.3124 20.1894C99.3225 19.8256 99.3472 19.4765 99.3837 19.1154C99.4582 18.1852 99.4471 17.2921 99.348 16.3639C99.3375 16.2539 99.3269 16.1439 99.316 16.0305C99.2798 15.6868 99.2798 15.6868 99.1697 15.219C98.4664 14.7523 97.7296 14.5747 96.887 14.6509C96.7458 14.7446 96.6046 14.8384 96.459 14.9349C96.0934 14.9083 96.0934 14.9083 95.7457 14.7929C95.3593 14.2159 95.3874 13.7651 95.4604 13.0888C95.6131 12.6518 95.7389 12.4612 96.1458 12.2367C96.731 11.9905 97.1237 11.905 97.743 12.0947C98.0757 12.1436 98.4086 12.1912 98.7417 12.2367C98.8829 12.0493 99.0242 11.8618 99.1697 11.6687C99.0549 11.5808 98.9402 11.4929 98.8219 11.4024C98.418 11.0689 98.3325 10.9687 98.2697 10.461C98.2219 9.33189 98.4354 8.69583 99.1697 7.83435ZM100.026 12.0947C100.12 12.1884 100.214 12.2822 100.311 12.3787C100.311 12.285 100.311 12.1913 100.311 12.0947C100.217 12.0947 100.123 12.0947 100.026 12.0947Z" fill="white"/>
<path d="M36.6544 20.3763C36.8086 20.4244 36.8086 20.4244 36.9659 20.4734C37.3077 20.4796 37.6496 20.479 37.9913 20.4734C38.3153 20.4681 38.6393 20.4667 38.9632 20.4734C39.0103 20.5203 39.0574 20.5671 39.1059 20.6154C39.6969 20.6505 39.6969 20.6505 40.2472 20.4734C41.7177 20.3643 43.7043 20.222 45.0979 20.7574C45.3797 21.1343 45.5161 21.432 45.6418 21.8846C45.4689 22.5334 45.0421 22.6989 44.481 23.029C44.0373 23.1948 43.8332 23.1647 43.3859 23.0296C42.7779 22.8548 42.4781 22.8816 41.9308 23.1699C41.829 23.2229 41.7272 23.2759 41.6223 23.3304C41.5451 23.3718 41.468 23.4131 41.3886 23.4556C41.3787 24.6148 41.3711 25.7739 41.3664 26.9331C41.3642 27.4713 41.3611 28.0096 41.3563 28.5478C41.3516 29.0671 41.3491 29.5864 41.348 30.1058C41.3472 30.304 41.3456 30.5022 41.3433 30.7004C41.3402 30.9779 41.34 31.2553 41.34 31.5327C41.339 31.6907 41.3381 31.8487 41.3371 32.0115C41.3581 32.4028 41.3581 32.4028 41.5772 32.6725C41.8329 32.8745 41.8329 32.8745 42.2713 32.784C42.4037 32.7518 42.5361 32.7196 42.6726 32.6864C42.7197 32.7801 42.7667 32.8739 42.8152 32.9704C42.9186 32.9655 43.022 32.9605 43.1284 32.9555C43.9464 32.9327 44.5334 32.9334 45.2406 33.3965C45.3832 33.5385 45.3832 33.5385 45.4189 34C45.3612 34.8616 45.3612 34.8616 44.9552 35.2426C44.5481 35.28 44.1637 35.2688 43.7559 35.2398C43.3515 35.2092 43.3515 35.2092 42.9579 35.5266C42.3101 35.4499 42.3101 35.4499 42.1019 35.2426C41.6215 35.2198 41.1874 35.2514 40.7109 35.3225C40.2472 35.3846 40.2472 35.3846 39.9619 35.2426C39.5288 35.2235 39.1474 35.234 38.7225 35.3225C38.3926 35.3846 38.3926 35.3846 37.9646 35.2426C37.4845 35.2249 37.0714 35.2111 36.6092 35.3491C36.0436 35.4054 35.7234 35.119 35.2539 34.8166C35.2539 34.3011 35.2539 33.7856 35.2539 33.2545C36.0716 32.9289 36.738 32.9116 37.6085 32.8772C38.0697 32.8321 38.2798 32.7456 38.6779 32.5444C38.9792 32.6074 38.9792 32.6074 39.2486 32.6864C39.2519 31.4298 39.2544 30.1731 39.256 28.9165C39.2567 28.333 39.2577 27.7496 39.2593 27.1661C39.2609 26.6035 39.2617 26.0409 39.2621 25.4783C39.2624 25.2632 39.2629 25.0481 39.2637 24.833C39.2647 24.5327 39.2648 24.2325 39.2648 23.9322C39.2651 23.761 39.2654 23.5897 39.2657 23.4133C39.2925 23.0414 39.2925 23.0414 39.1059 22.8876C38.7909 22.8809 38.4758 22.8823 38.1607 22.8876C36.3751 22.8948 36.3751 22.8948 35.6997 22.5148C35.3099 22.0811 35.287 21.7549 35.2539 21.1834C35.4304 21.0363 35.6092 20.8918 35.7889 20.7485C35.9379 20.6274 35.9379 20.6274 36.0898 20.5039C36.3952 20.3314 36.3952 20.3314 36.6544 20.3763Z" fill="#FEF9F7"/>
<path d="M68.3535 5.56213C68.6831 5.56213 69.0126 5.56213 69.3522 5.56213C69.3522 20.4649 69.3522 35.3676 69.3522 50.7219C69.0226 50.7219 68.6931 50.7219 68.3535 50.7219C68.3535 35.8192 68.3535 20.9165 68.3535 5.56213Z" fill="#EC242C"/>
<path d="M224.716 41.7752C225.409 42.1582 225.59 42.6305 225.858 43.3373C225.928 43.4076 225.928 43.4076 226 43.4793C226.139 44.9591 226.139 44.9591 225.742 45.6006C225.587 45.7456 225.587 45.7456 225.43 45.8935C225.283 46.1279 225.139 46.3639 225.002 46.6036C224.857 46.5743 224.713 46.545 224.565 46.5148C224.005 46.4232 224.005 46.4232 223.504 46.6302C223.004 46.7456 223.004 46.7456 222.487 46.5592C221.763 46.0793 221.381 45.3124 221.203 44.4823C221.366 43.6864 221.66 42.9215 222.292 42.3831C223.064 41.8952 223.788 41.6486 224.716 41.7752Z" fill="#ED262D"/>
<path d="M29.1208 24.5917C29.262 24.6385 29.4032 24.6854 29.5488 24.7337C29.5471 24.8637 29.5454 24.9936 29.5437 25.1275C29.5425 25.2963 29.5412 25.4651 29.5398 25.639C29.5382 25.8071 29.5365 25.9751 29.5348 26.1483C29.5181 26.5684 29.5181 26.5684 29.6914 26.8639C29.7053 27.1417 29.7099 27.42 29.7093 27.6982C29.7096 27.8472 29.71 27.9962 29.7104 28.1497C29.6914 28.568 29.6914 28.568 29.6011 28.8886C29.5839 28.9703 29.5666 29.0519 29.5488 29.1361C29.6429 29.2298 29.7371 29.3235 29.8341 29.4201C29.7799 29.6853 29.7799 29.6853 29.6914 29.9881C29.6881 30.183 29.6921 30.3782 29.7026 30.5728C29.7081 30.7373 29.7081 30.7373 29.7137 30.9051C29.7226 31.133 29.7337 31.3608 29.7472 31.5885C29.7631 32.1837 29.7424 32.5623 29.3554 33.0336C28.9997 33.3756 28.7226 33.6355 28.2648 33.8224C27.9589 33.721 27.7779 33.6219 27.5514 33.3964C27.4843 31.2951 27.5897 28.6337 28.5501 26.7219C28.6246 26.2479 28.6873 25.7729 28.7502 25.2973C28.8354 24.8757 28.8354 24.8757 29.1208 24.5917Z" fill="#ED3535"/>
<path d="M51.6617 30.4142C52.2635 30.8136 52.4347 31.3057 52.6603 31.9764C52.7467 32.7127 52.6477 33.0763 52.2323 33.6805C52.1327 33.9153 52.0362 34.1516 51.947 34.3906C51.8626 34.3889 51.7782 34.3873 51.6912 34.3856C51.5785 34.3843 51.4657 34.383 51.3496 34.3817C51.1833 34.3792 51.1833 34.3792 51.0135 34.3767C50.6568 34.3773 50.6568 34.3773 50.3013 34.4915C49.9497 34.5326 49.9497 34.5326 49.6354 34.339C49.539 34.2476 49.4426 34.1563 49.3433 34.0622C49.2455 33.9719 49.1477 33.8817 49.0469 33.7887C48.7179 33.4437 48.6695 33.2921 48.6211 32.8107C48.6846 32.0263 48.8969 31.44 49.4832 30.8946C50.1691 30.4122 50.8309 30.2593 51.6617 30.4142Z" fill="#FEF9F7"/>
</g>
<defs>
<clipPath id="clip0_9672_3384">
<rect width="214" height="48" fill="white" transform="translate(12 4)"/>
</clipPath>
</defs>
</svg>
