<svg width="139" height="34" viewBox="0 0 139 34" fill="none" xmlns="http://www.w3.org/2000/svg">
<path d="M47 0C48.9611 0 50.9221 0 52.9426 0C52.9426 4.32377 52.9426 8.64755 52.9426 13.1023C55.6205 13.1023 58.2984 13.1023 61.0574 13.1023C61.0574 8.77857 61.0574 4.4548 61.0574 0C63.0184 0 64.9795 0 67 0C67 10.89 67 21.78 67 33C65.0389 33 63.0779 33 61.0574 33C61.0574 28.0585 61.0574 23.1171 61.0574 18.0259C58.3795 18.0259 55.7016 18.0259 52.9426 18.0259C52.9426 22.9673 52.9426 27.9088 52.9426 33C50.9816 33 49.0205 33 47 33C47 22.11 47 11.22 47 0Z" fill="white"/>
<path d="M72.0051 0C73.9781 0 75.9512 0 77.9841 0C77.9849 0.679619 77.9857 1.35924 77.9866 2.05945C77.9871 2.51348 77.9877 2.96751 77.9883 3.42153C77.9883 3.45039 77.9883 3.47924 77.9884 3.50897C77.9896 4.48147 77.9909 5.45397 77.9924 6.42646C77.9924 6.45824 77.9925 6.49001 77.9925 6.52275C77.9935 7.21351 77.9945 7.90426 77.9956 8.59502C77.9961 8.93384 77.9966 9.27265 77.9971 9.61146C77.9972 9.66203 77.9972 9.66203 77.9973 9.71363C77.9989 10.8037 78.0003 11.8938 78.0015 12.9838C78.0028 14.1053 78.0043 15.2268 78.0062 16.3482C78.0065 16.5071 78.0067 16.666 78.007 16.8249C78.007 16.8562 78.0071 16.8874 78.0071 16.9197C78.0079 17.4202 78.0085 17.9208 78.0089 18.4214C78.0094 18.9263 78.0101 19.4312 78.0111 19.9362C78.0117 20.2091 78.0121 20.4819 78.0121 20.7548C77.8676 24.1968 77.8676 24.1968 79.2281 27.2241C80.0808 28.0311 81.2558 28.1315 82.3769 28.1102C83.3842 28.0765 84.2666 27.8077 84.9857 27.0788C85.7962 26.2027 85.939 24.8728 86.0108 23.7349C86.0142 23.6856 86.0175 23.6363 86.021 23.5855C86.0543 23.07 86.058 22.5558 86.0582 22.0394C86.0584 21.9439 86.0586 21.8484 86.0589 21.7528C86.0594 21.4923 86.0597 21.2317 86.06 20.9711C86.0603 20.7184 86.0608 20.4656 86.0612 20.2129C86.0622 19.6965 86.063 19.18 86.0637 18.6636C86.0643 18.1526 86.0651 17.6417 86.066 17.1308C86.066 17.099 86.0661 17.0671 86.0661 17.0343C86.0664 16.8726 86.0667 16.7109 86.067 16.5492C86.0689 15.4056 86.0707 14.262 86.0723 13.1184C86.074 12.0079 86.0757 10.8973 86.0775 9.7867C86.0775 9.75243 86.0776 9.71816 86.0776 9.68285C86.0782 9.3387 86.0788 8.99455 86.0793 8.6504C86.0805 7.9494 86.0816 7.2484 86.0827 6.54741C86.0828 6.51518 86.0828 6.48295 86.0829 6.44975C86.0845 5.4625 86.086 4.47526 86.0875 3.48801C86.0876 3.46 86.0876 3.43198 86.0876 3.40312C86.0894 2.26875 86.091 1.13437 86.0927 0C88.0388 0 89.9848 0 91.9899 0C91.9915 2.73435 91.9915 2.73435 91.992 3.5811C91.992 3.6113 91.992 3.6415 91.992 3.67262C91.9926 4.6905 91.993 5.70839 91.9933 6.72627C91.9934 6.77616 91.9934 6.77616 91.9934 6.82705C91.9936 7.55007 91.9938 8.27308 91.9941 8.99609C91.9942 9.35073 91.9943 9.70536 91.9944 10.06C91.9944 10.0953 91.9944 10.1306 91.9944 10.1669C91.9947 11.3079 91.9954 12.4488 91.9961 13.5897C91.9969 14.7635 91.9974 15.9373 91.9976 17.1111C91.9976 17.2775 91.9976 17.4438 91.9976 17.6101C91.9976 17.6592 91.9976 17.6592 91.9977 17.7093C91.9978 18.2332 91.9981 18.7571 91.9986 19.281C91.9991 19.8095 91.9993 20.338 91.9992 20.8665C91.9991 21.1522 91.9992 21.4378 91.9996 21.7234C92.0017 23.1435 92.0005 24.5627 91.8337 25.9754C91.8303 26.0054 91.8268 26.0353 91.8233 26.0663C91.6387 27.6509 91.051 29.0555 89.9422 30.2192C89.8992 30.2699 89.8565 30.3208 89.8143 30.3721C89.6799 30.5289 89.5285 30.6593 89.3689 30.7901C89.3285 30.8238 89.288 30.8574 89.2464 30.8921C87.2223 32.5453 84.5389 33.0024 81.9923 33C81.9489 33 81.9055 33 81.8608 33C81.1657 32.9991 80.478 32.981 79.786 32.9108C79.7437 32.9066 79.7014 32.9025 79.6578 32.8982C77.5813 32.6876 75.4464 32.0424 74.0317 30.4261C72.1878 28.1575 71.9962 25.0603 72.0001 22.2552C72.0001 22.1585 72.0001 22.0618 72 21.9652C71.9999 21.7296 72.0001 21.494 72.0002 21.2584C72.0005 20.9757 72.0004 20.693 72.0004 20.4103C72.0003 19.8888 72.0005 19.3672 72.0007 18.8457C72.001 18.3299 72.0011 17.8141 72.0012 17.2983C72.0012 17.2661 72.0012 17.234 72.0012 17.2008C72.0012 17.0375 72.0012 16.8741 72.0012 16.7107C72.0013 15.5559 72.0016 14.4011 72.002 13.2463C72.0023 12.1249 72.0026 11.0036 72.0028 9.88228C72.0028 9.84767 72.0028 9.81305 72.0028 9.77739C72.0029 9.42978 72.0029 9.08217 72.003 8.73455C72.0031 8.02653 72.0032 7.31851 72.0033 6.61048C72.0033 6.57793 72.0033 6.54539 72.0033 6.51185C72.0035 5.51495 72.0037 4.51804 72.004 3.52114C72.004 3.49285 72.004 3.46457 72.004 3.43543C72.0043 2.29029 72.0047 1.14514 72.0051 0Z" fill="white"/>
<path d="M9.26882 8.32992e-05C9.30165 5.58106e-05 9.33447 2.83217e-05 9.3683 0C11.6108 0.00294684 14.0497 0.468813 15.7346 2.04756C15.814 2.12186 15.896 2.19 15.9805 2.25858C17.6169 3.68644 18.2632 6.07597 18.3973 8.15021C18.4169 8.56329 18.4158 8.97708 18.4162 9.39053C18.4162 9.43109 18.4163 9.47165 18.4163 9.51343C18.4163 9.6297 18.4159 9.74596 18.4154 9.86222C18.4153 9.89748 18.4153 9.93275 18.4152 9.96908C18.415 10.0018 18.4147 10.0346 18.4144 10.0683C18.4143 10.0969 18.4141 10.1254 18.414 10.1548C18.4085 10.2359 18.4085 10.2359 18.3674 10.3988C16.5108 10.3988 14.6543 10.3988 12.7414 10.3988C12.7279 9.96863 12.7143 9.53842 12.7004 9.09517C12.6198 7.86738 12.5086 6.41914 11.5241 5.53476C10.6943 4.87032 9.56495 4.77354 8.53726 4.86716C7.91243 4.95268 7.22948 5.26025 6.82798 5.75453C6.72456 5.89983 6.63081 6.04905 6.54052 6.20267C6.52443 6.22945 6.50833 6.25624 6.49175 6.28383C6.08272 7.0225 6.05447 8.07042 6.25162 8.87731C6.51326 9.71672 7.05532 10.3042 7.74191 10.8325C7.79377 10.8725 7.84541 10.9127 7.89691 10.9531C8.49917 11.4252 9.12936 11.8509 9.7668 12.274C9.95903 12.4016 10.1508 12.53 10.3425 12.6584C10.3761 12.681 10.4097 12.7035 10.4443 12.7267C10.5131 12.7728 10.582 12.819 10.6508 12.8651C10.8248 12.9817 10.9988 13.0983 11.1729 13.2148C11.2075 13.238 11.2421 13.2611 11.2777 13.285C11.4861 13.4244 11.6944 13.5638 11.9028 13.7031C13.2982 14.6357 14.6769 15.5715 15.9445 16.6727C15.9657 16.691 15.9868 16.7094 16.0086 16.7283C16.223 16.9152 16.4271 17.1038 16.6106 17.321C16.6628 17.3817 16.7169 17.4408 16.7723 17.4986C17.3033 18.0546 17.7307 18.68 18.08 19.3615C18.1 19.3999 18.1 19.3999 18.1205 19.439C18.5057 20.1825 18.7197 20.9851 18.8602 21.8059C18.867 21.8441 18.8738 21.8823 18.8808 21.9216C18.9965 22.6071 18.9962 23.2975 18.9988 23.9905C18.9991 24.036 18.9995 24.0814 18.9998 24.1282C19.0099 25.9564 18.6541 27.8351 17.6282 29.3834C17.6123 29.4076 17.5963 29.4317 17.5798 29.4566C17.3447 29.8069 17.0803 30.1197 16.785 30.4215C16.7281 30.48 16.6721 30.5395 16.6162 30.5989C15.1141 32.1584 12.866 32.7433 10.7703 32.9278C10.7234 32.9321 10.7234 32.9321 10.6756 32.9365C8.12072 33.1621 5.03389 32.8359 2.98232 31.1573C2.86516 31.0578 2.7516 30.9549 2.63929 30.8501C2.61632 30.8288 2.59336 30.8075 2.56971 30.7856C0.971519 29.2919 0.299992 27.0996 0.0932164 24.9836C0.0889881 24.9403 0.0847598 24.8971 0.0804034 24.8525C0.0245488 24.2505 0.00301774 23.6501 0.000818731 23.0459C0.000602437 23.0167 0.000386143 22.9876 0.000163295 22.9575C-0.00331796 22.3522 0.0495483 21.7606 0.0932164 21.1541C2.05821 21.1541 4.0232 21.1541 6.04773 21.1541C6.06057 22.6309 6.06057 22.6309 6.06366 23.0892C6.04521 25.4136 6.04521 25.4136 7.03411 27.4345C7.69754 28.0689 8.62985 28.1347 9.50366 28.1267C10.4219 28.1089 11.3465 27.8871 12.0433 27.265C12.0679 27.2448 12.0924 27.2246 12.1177 27.2039C12.7409 26.6519 12.9707 25.6916 13.0289 24.9021C13.0855 23.6036 12.7735 22.472 11.8816 21.5003C11.8508 21.468 11.8199 21.4356 11.7881 21.4023C11.7148 21.317 11.7148 21.317 11.6737 21.1948C11.6193 21.1669 11.5645 21.1399 11.5095 21.1133C11.4547 21.0616 11.4018 21.0079 11.3503 20.9529C11.13 20.7293 10.8871 20.5426 10.6371 20.3534C10.5704 20.3027 10.5043 20.2511 10.4382 20.1995C10.073 19.9154 9.69282 19.6535 9.31161 19.391C9.15918 19.2859 9.0073 19.18 8.85559 19.0738C8.82733 19.054 8.79907 19.0343 8.76995 19.0139C8.56115 18.8675 8.35408 18.7188 8.14721 18.5696C7.89259 18.3862 7.63504 18.2077 7.37467 18.0324C7.11683 17.8588 6.86316 17.681 6.61296 17.4968C6.40332 17.3429 6.18999 17.1947 5.97587 17.047C5.1867 16.5017 4.4103 15.9327 3.66593 15.3283C3.62861 15.2989 3.59129 15.2694 3.55283 15.239C2.91093 14.7193 2.29497 14.1287 1.81797 13.4543C1.80238 13.4323 1.78678 13.4102 1.77071 13.3875C0.833706 12.0471 0.427577 10.5107 0.380676 8.89147C0.379776 8.86448 0.378876 8.83749 0.377949 8.80968C0.341989 7.57772 0.492692 6.3572 0.873463 5.18418C0.882436 5.15604 0.891409 5.1279 0.900653 5.0989C1.48967 3.2897 2.8602 1.84374 4.54226 0.976239C6.0041 0.246906 7.64696 0.00132085 9.26882 8.32992e-05Z" fill="white"/>
<path d="M120.581 0C126.495 0 132.409 0 138.502 0C138.502 5.32034 138.502 5.32034 137.01 8.25597C136.867 8.53724 136.725 8.81857 136.582 9.09995C136.564 9.13594 136.545 9.17193 136.527 9.20902C136.49 9.28177 136.453 9.35452 136.416 9.42727C136.115 10.0206 135.813 10.6136 135.511 11.2062C135.221 11.7757 134.932 12.3457 134.642 12.9159C134.605 12.9886 134.569 13.0613 134.532 13.134C134.513 13.1701 134.495 13.2061 134.476 13.2432C134.283 13.6232 134.09 14.0031 133.897 14.383C133.614 14.9412 133.33 15.4995 133.047 16.0579C132.66 16.8209 132.272 17.5837 131.885 18.3465C131.729 18.6522 131.574 18.9579 131.419 19.2636C131.332 19.4338 131.246 19.6039 131.159 19.774C131.125 19.8421 131.09 19.9101 131.056 19.9781C129.189 23.6524 129.189 23.6524 129.137 23.7545C129.102 23.8225 129.068 23.8906 129.033 23.9586C128.947 24.1286 128.861 24.2986 128.774 24.4685C128.618 24.7762 128.462 25.0839 128.305 25.3916C128.235 25.5306 128.164 25.6695 128.094 25.8085C128.061 25.8721 128.029 25.9357 127.997 25.9993C127.627 26.7266 127.257 27.4531 126.886 28.1798C132.883 28.2005 132.883 28.2005 139 28.2217C139 30.1285 139 32.0354 139 34C132.73 34 126.46 34 120 34C120 28.1379 120 28.1379 120.498 27.1749C120.595 26.9865 120.692 26.7981 120.788 26.6096C120.967 26.2604 121.147 25.9114 121.328 25.5628C121.605 25.0261 121.881 24.4884 122.157 23.9507C122.453 23.374 122.75 22.7973 123.048 22.2215C123.208 21.9119 123.367 21.602 123.526 21.2919C123.726 20.9036 123.926 20.5156 124.126 20.128C124.286 19.8184 124.446 19.5084 124.605 19.1983C124.784 18.8491 124.964 18.5001 125.144 18.1515C125.422 17.6147 125.698 17.0771 125.974 16.5394C126.27 15.9626 126.566 15.386 126.864 14.8102C127.049 14.4524 127.233 14.0941 127.417 13.7358C127.571 13.4366 127.725 13.1377 127.88 12.839C128.068 12.4748 128.255 12.1101 128.442 11.7451C128.649 11.3413 128.856 10.9379 129.065 10.535C129.224 10.2269 129.383 9.9183 129.541 9.60961C129.741 9.22129 129.941 8.83333 130.141 8.4457C130.302 8.1361 130.461 7.82611 130.62 7.51601C130.805 7.15644 130.99 6.79695 131.175 6.43781C131.194 6.40151 131.212 6.36521 131.232 6.32781C131.399 6.00389 131.57 5.68201 131.74 5.35961C128.058 5.34579 124.375 5.33197 120.581 5.31773C120.581 3.56288 120.581 1.80803 120.581 0Z" fill="white"/>
<path d="M33.0577 3.13516e-05C33.114 6.91868e-05 33.114 6.91868e-05 33.1715 0.000107786C35.6791 0.00465757 38.3406 0.45669 40.1884 2.24547C42.0497 4.07355 42.6047 6.79745 42.7775 9.27495C42.78 9.3098 42.7825 9.34464 42.785 9.38054C42.819 9.87477 42.8204 10.365 42.8204 10.8612C40.8253 10.8612 38.8302 10.8612 36.7746 10.8612C36.7463 10.2275 36.718 9.59388 36.6889 8.941C36.5347 7.67858 36.2829 6.31143 35.1975 5.46699C34.3661 4.89719 33.3376 4.81563 32.3505 4.96084C31.6041 5.10102 30.9865 5.48299 30.5547 6.09493C29.8571 7.20942 29.6932 8.54027 29.5819 9.81762C29.5794 9.84608 29.5768 9.87453 29.5742 9.90385C29.4863 10.9143 29.4782 11.9324 29.4613 12.9458C29.4604 12.999 29.4595 13.0521 29.4586 13.1069C29.4191 15.5293 29.4243 17.9538 29.4613 20.3762C29.4619 20.4185 29.4619 20.4185 29.4626 20.4617C29.4854 22.1228 29.4854 22.1228 29.5819 23.7809C29.5846 23.8143 29.5873 23.8476 29.59 23.882C29.7066 25.3088 29.8475 26.956 30.8146 28.1014C30.8422 28.1368 30.8697 28.1723 30.898 28.2088C31.2995 28.6703 31.9701 28.9103 32.5726 28.978C32.7826 28.991 32.992 28.9951 33.2024 28.9962C33.2538 28.9967 33.3052 28.9971 33.3581 28.9975C34.1556 28.99 34.9652 28.7636 35.558 28.224C36.2835 27.4765 36.5005 26.4022 36.654 25.4193C36.6607 25.3772 36.6673 25.3351 36.6741 25.2918C36.8516 24.0803 36.856 22.8506 36.9033 21.6311C38.8983 21.6311 40.8934 21.6311 42.949 21.6311C42.9986 22.355 42.9986 22.355 42.9991 22.6411C42.9993 22.674 42.9994 22.7069 42.9996 22.7407C43 22.8457 43.0001 22.9506 42.9999 23.0556C42.9999 23.092 42.9999 23.1285 42.9998 23.166C42.994 26.2361 42.4234 29.4508 40.162 31.7331C38.2833 33.5441 35.5213 34.0087 32.9787 33.9999C31.2032 33.9874 29.433 33.7337 27.8561 32.9019C27.8102 32.8778 27.7644 32.8538 27.7172 32.829C26.4908 32.1584 25.5125 31.1136 24.8118 29.9381C24.784 29.892 24.7563 29.8458 24.7277 29.7983C23.4133 27.5473 23.2154 24.7103 23.0886 22.1764C23.087 22.1449 23.0854 22.1134 23.0838 22.081C23.0738 21.8759 23.0657 21.6707 23.0584 21.4654C23.0552 21.3777 23.0518 21.29 23.0483 21.2024C22.9958 19.8778 23.0028 18.5521 23.003 17.2268C23.0029 16.9989 23.0026 16.7709 23.0021 16.543C22.986 9.38479 22.986 9.38479 26.1687 2.2749C27.6101 0.878574 29.5809 0.196848 31.5864 0.049602C31.6307 0.0460673 31.675 0.0425327 31.7207 0.0388909C32.1666 0.00612096 32.6106 -0.000526308 33.0577 3.13516e-05Z" fill="white"/>
<path d="M96 0C102.6 0 109.2 0 116 0C116 1.69191 116 3.38382 116 5.127C113.704 5.127 111.408 5.127 109.042 5.127C109.042 14.3251 109.042 23.5232 109.042 33C107.034 33 105.027 33 102.958 33C102.958 23.8019 102.958 14.6038 102.958 5.127C100.662 5.127 98.3658 5.127 96 5.127C96 3.43509 96 1.74318 96 0Z" fill="white"/>
</svg>
